<svg version="1.1" id="Layer_1" xmlns="http://www.w3.org/2000/svg" xmlns:xlink="http://www.w3.org/1999/xlink" x="0px" y="0px"
	 width="100%" viewBox="0 0 3261 916" enable-background="new 0 0 3261 916" xml:space="preserve">


<path fill="#E10628" opacity="1.000000" stroke="none" 
	d="
M3.092513,210.461227 
	C4.101099,207.152725 5.477064,204.370911 5.899510,201.451126 
	C8.747677,181.765762 14.598892,162.969315 22.075424,144.604263 
	C29.967815,125.217682 40.373158,107.277016 53.566025,91.083412 
	C67.618073,73.835213 84.431328,59.638454 103.358559,47.886410 
	C128.243713,32.435032 155.495102,22.864805 183.765640,16.363167 
	C198.230591,13.036535 213.182449,11.477131 228.006897,10.168976 
	C241.035889,9.019257 254.277298,8.252191 267.275421,9.254547 
	C286.527130,10.739151 305.765961,13.264983 324.781403,16.637882 
	C337.886139,18.962358 350.641541,23.339138 363.478210,27.057171 
	C369.902069,28.917789 371.520508,31.677048 369.948425,37.468681 
	C364.571106,57.279160 359.057770,77.052719 353.530396,97.079163 
	C344.449890,94.310127 335.688995,91.185730 326.699524,89.002502 
	C312.926483,85.657486 299.097595,82.273933 285.100647,80.202591 
	C273.551697,78.493492 261.707520,77.906349 250.024872,78.172287 
	C231.156143,78.601814 212.572128,81.555229 194.340958,86.803322 
	C176.511337,91.935829 160.130615,99.704651 145.300812,110.894096 
	C126.979156,124.718239 114.105873,142.612747 104.987923,163.465240 
	C98.799736,177.617432 94.816498,192.453766 92.364113,207.591293 
	C89.801704,223.407974 89.269920,239.353088 90.782715,255.466568 
	C92.574554,274.552368 96.827354,292.922729 104.080315,310.542816 
	C115.389496,338.016907 132.864029,360.492859 158.707336,375.967194 
	C175.923767,386.275940 194.560883,393.085785 214.249863,395.645447 
	C230.596481,397.770599 247.308273,398.203949 263.803741,397.677368 
	C274.939667,397.321930 285.998199,394.086884 297.055573,391.954315 
	C301.372955,391.121643 304.964569,386.516998 304.972137,381.990387 
	C305.023865,350.995972 305.024445,320.001434 304.949432,289.007141 
	C304.943573,286.580109 304.749969,283.889740 303.678955,281.821198 
	C302.956696,280.426178 300.544159,279.132233 298.876495,279.118103 
	C277.715149,278.938843 256.551727,279.000031 235.388840,279.000000 
	C233.561874,279.000000 231.734909,279.000000 229.116394,279.000000 
	C225.475571,257.460205 224.817566,235.993530 228.272247,214.216187 
	C280.441681,214.216187 332.374634,214.216187 384.650513,214.216187 
	C385.103180,218.627930 385.937012,222.997467 385.942322,227.368042 
	C386.024841,295.189148 386.001434,363.010406 385.998230,430.831635 
	C385.997833,439.240509 384.399445,441.410095 376.585846,443.995972 
	C353.288574,451.706146 329.613342,457.870636 305.240845,461.016022 
	C293.199677,462.569977 281.130737,464.250671 269.023132,464.866241 
	C251.949783,465.734222 234.800491,466.448059 217.734573,465.827698 
	C187.778961,464.738708 158.643066,458.769470 130.633926,447.881042 
	C112.216751,440.721466 95.224915,430.914612 79.541801,418.952423 
	C61.947140,405.532135 47.541706,389.127136 36.090706,370.218781 
	C23.628496,349.640656 15.276405,327.360107 10.078147,303.936157 
	C7.921916,294.219971 6.671054,284.303619 4.950848,274.488403 
	C4.820171,273.742798 4.228134,273.078064 3.508304,272.189148 
	C3.116955,251.643066 3.067853,231.283569 3.092513,210.461227 
z"/>
<path fill="#E10628" opacity="1.000000" stroke="none" 
	d="
M3259.907471,460.538818 
	C3239.004883,461.001129 3218.176270,461.003357 3197.347412,460.998657 
	C3188.855225,460.996735 3186.465088,458.577454 3185.979004,449.970154 
	C3185.347656,438.787018 3184.562012,427.612640 3183.730225,414.683075 
	C3179.676514,419.200775 3176.321533,422.594208 3173.359863,426.301849 
	C3161.595215,441.028656 3146.766357,451.553619 3129.568115,459.014954 
	C3109.037598,467.922241 3087.327637,469.324829 3065.573730,467.769531 
	C3043.187744,466.169037 3023.207275,457.644653 3006.060059,442.659363 
	C2986.636719,425.684875 2977.111328,403.626831 2971.980713,379.085724 
	C2967.633545,358.290802 2966.902588,337.241119 2966.953857,316.081177 
	C2967.090088,259.760437 2966.987061,203.439133 2967.037109,147.118103 
	C2967.039551,144.214600 2967.579346,141.311584 2967.886963,138.228088 
	C2994.676758,138.228088 3020.955566,138.228088 3047.820801,138.228088 
	C3048.210693,142.201660 3048.943848,146.223190 3048.948975,150.245651 
	C3049.023926,207.399780 3048.744873,264.555817 3049.151855,321.707184 
	C3049.277344,339.319733 3053.133057,356.481873 3061.151367,372.404877 
	C3071.458496,392.872742 3093.292725,402.782532 3116.055420,399.287903 
	C3136.094482,396.211426 3151.406494,386.377625 3162.877441,370.384521 
	C3169.392822,361.300201 3173.849365,350.877899 3173.932617,339.423859 
	C3174.405273,274.502869 3174.666992,209.580338 3174.998779,144.658340 
	C3175.008789,142.677292 3175.000000,140.696152 3175.000000,138.163116 
	C3179.416748,137.761917 3183.609131,137.076477 3187.805176,137.051880 
	C3207.633545,136.935577 3227.462891,136.998856 3247.291992,137.000534 
	C3255.737793,137.001251 3257.996582,139.299927 3257.997314,147.968369 
	C3258.002441,210.954666 3258.000000,273.940948 3258.000000,336.927246 
	C3258.000000,361.588531 3257.980713,386.249908 3258.042969,410.911011 
	C3258.047119,412.579468 3258.664551,414.246338 3259.415283,415.956116 
	C3259.883057,430.690826 3259.932129,445.383392 3259.907471,460.538818 
z"/>
<path fill="#E10628" opacity="1.000000" stroke="none" 
	d="
M1498.446533,910.907471 
	C1479.770752,903.781433 1478.573364,888.119690 1487.095825,872.478027 
	C1493.891846,860.004639 1504.420776,850.774048 1514.275879,840.765564 
	C1529.977295,824.819763 1548.815796,814.117371 1568.385620,804.315247 
	C1586.213745,795.385437 1604.292847,786.956787 1622.261475,778.307495 
	C1623.887451,777.524719 1625.744873,777.013855 1627.072998,775.881836 
	C1628.300781,774.835205 1628.961670,773.123596 1629.872192,771.704834 
	C1628.450684,771.136719 1626.944092,769.928040 1625.621582,770.104004 
	C1616.714844,771.289062 1607.960205,770.497681 1599.462646,767.916321 
	C1590.682983,765.249390 1583.536987,760.281677 1580.137451,751.232666 
	C1575.827026,739.759521 1580.437866,725.669739 1591.583740,719.291443 
	C1609.125854,709.252930 1627.518555,707.405273 1646.261719,716.150146 
	C1648.576660,717.230225 1650.612061,719.143860 1652.424805,721.012756 
	C1655.368042,724.047424 1658.078003,726.687073 1662.995483,726.161499 
	C1666.524658,725.784302 1668.690063,728.449707 1668.966064,732.048218 
	C1669.455322,738.427185 1668.364014,744.437317 1664.701660,749.891479 
	C1663.248413,752.055664 1661.974121,754.442810 1661.182739,756.909546 
	C1660.709473,758.384033 1660.734741,760.780518 1661.629639,761.712891 
	C1662.485107,762.604187 1664.932495,762.665405 1666.378662,762.184814 
	C1681.404419,757.190979 1696.362793,751.995422 1711.353149,746.894714 
	C1720.455811,743.797302 1729.565308,740.717651 1738.702881,737.725464 
	C1744.573364,735.803040 1748.781616,736.854614 1750.910645,740.792969 
	C1753.426392,745.446899 1751.150635,749.306458 1748.500977,752.991272 
	C1746.590698,755.647827 1744.268311,758.063599 1742.732422,760.911743 
	C1741.894409,762.465698 1742.310913,764.696167 1742.161621,766.621521 
	C1742.734985,766.919800 1743.308472,767.218079 1743.881958,767.516357 
	C1749.219727,764.186401 1754.730591,761.090271 1759.771240,757.358765 
	C1761.002686,756.447083 1761.035278,753.441589 1760.968994,751.419983 
	C1760.925659,750.099426 1759.888184,748.677917 1758.992920,747.540100 
	C1752.185913,738.888062 1757.888794,730.281006 1766.887573,728.275208 
	C1771.203979,727.313232 1775.956421,727.590637 1780.410156,728.135071 
	C1786.661499,728.899292 1790.095947,734.698181 1788.576904,740.854980 
	C1787.005615,747.223572 1788.402710,749.361877 1794.923218,748.910217 
	C1804.579956,748.241455 1814.257568,747.342896 1823.793335,745.747803 
	C1827.088867,745.196472 1830.063599,742.388428 1833.054688,740.414124 
	C1844.380249,732.938782 1855.438599,724.985474 1868.890991,721.545654 
	C1875.382324,719.885864 1882.127930,722.144897 1885.007324,727.025391 
	C1888.585083,733.089355 1887.747070,739.864685 1882.458130,744.997803 
	C1876.411621,750.866272 1870.168457,756.532227 1862.842896,763.377441 
	C1865.627686,763.377441 1866.940674,763.606323 1868.146484,763.343140 
	C1885.654053,759.522522 1901.325317,751.548645 1916.436157,742.189636 
	C1920.132324,739.900269 1924.514771,738.748230 1928.447144,736.801819 
	C1931.862915,735.110962 1934.647583,736.080505 1936.921631,738.540222 
	C1939.350342,741.167358 1939.986084,744.396912 1938.068604,747.643372 
	C1936.409058,750.453125 1934.286377,753.002869 1932.776367,755.881592 
	C1931.973267,757.412231 1931.201416,759.970337 1931.926880,761.026733 
	C1932.767944,762.251587 1935.410645,763.102600 1937.025879,762.801208 
	C1956.482056,759.171082 1975.705811,754.404175 1993.566772,745.770874 
	C2000.962158,742.196228 2006.938110,735.793213 2014.102417,731.604858 
	C2022.784424,726.529236 2031.889893,722.095398 2041.092041,718.015015 
	C2050.051025,714.042236 2062.268555,723.187866 2064.066406,732.561279 
	C2065.673340,740.939331 2061.644043,746.935303 2056.744629,752.700439 
	C2053.212891,756.856567 2049.337646,760.719910 2045.778076,764.853821 
	C2044.871704,765.906250 2044.286011,767.443970 2044.064941,768.839905 
	C2043.250122,773.984009 2044.391235,775.848328 2049.419189,774.785278 
	C2055.856934,773.424255 2062.450439,771.347107 2068.107666,768.075684 
	C2077.423828,762.688049 2085.906006,755.880005 2094.995850,750.072266 
	C2103.394531,744.706299 2111.970459,739.568665 2120.756836,734.869934 
	C2132.567627,728.553650 2144.469971,722.334351 2156.715332,716.941101 
	C2161.633301,714.775085 2167.538086,714.624573 2173.045166,714.089050 
	C2177.600586,713.646179 2181.906738,715.186829 2183.300537,719.972595 
	C2184.628418,724.531372 2185.413574,729.594055 2181.112793,733.317688 
	C2171.530518,741.614014 2161.814453,749.755310 2152.158691,757.966431 
	C2151.370117,758.636963 2150.625244,759.359009 2150.441162,761.005188 
	C2154.073730,759.428162 2157.669922,757.760498 2161.344727,756.289307 
	C2179.522461,749.011658 2197.648438,741.592834 2215.979248,734.721863 
	C2219.236816,733.500793 2223.711914,733.700439 2227.030762,734.894348 
	C2232.142090,736.732971 2233.666260,743.961060 2231.068359,749.785583 
	C2229.961426,752.268005 2228.825195,754.737427 2227.702148,757.212769 
	C2227.983154,757.578735 2228.263916,757.944702 2228.544922,758.310669 
	C2230.425537,757.665039 2232.370117,757.161865 2234.176270,756.350586 
	C2245.671143,751.187256 2257.050537,745.753418 2268.663330,740.874023 
	C2272.018799,739.464050 2276.008057,739.169250 2279.721924,739.092529 
	C2286.040527,738.961792 2290.139404,744.625305 2287.710205,750.432556 
	C2285.846191,754.888855 2282.870117,758.878174 2280.412109,763.088867 
	C2279.458984,764.721680 2278.570557,766.392151 2277.652832,768.045471 
	C2277.940674,768.541260 2278.228760,769.036987 2278.516602,769.532776 
	C2284.436768,767.666931 2290.697754,766.493286 2296.201904,763.782654 
	C2305.882568,759.015320 2314.759766,752.510925 2324.638428,748.291016 
	C2330.649414,745.723267 2332.878906,740.279785 2337.337891,736.658386 
	C2347.874512,728.100769 2360.166992,724.201477 2372.882812,720.931396 
	C2382.268555,718.517761 2391.690186,717.648560 2401.104248,720.603088 
	C2406.772705,722.382080 2410.791748,726.319641 2414.061523,731.163940 
	C2415.525391,733.332642 2417.096924,735.477966 2418.910400,737.352234 
	C2424.585693,743.217346 2425.215332,746.145874 2422.079346,753.699097 
	C2421.640869,754.755066 2421.303955,755.854675 2420.947998,756.943298 
	C2419.249512,762.140259 2422.284668,765.841736 2427.802490,764.899353 
	C2438.682861,763.041260 2449.052246,759.678955 2458.201416,753.266602 
	C2474.007080,742.189087 2489.773193,731.055420 2505.561768,719.953247 
	C2513.707520,714.225159 2522.950684,713.149597 2532.481689,714.100708 
	C2538.355957,714.687012 2543.458984,723.343140 2541.877441,729.889343 
	C2540.577148,735.271179 2537.862305,739.883667 2532.991211,743.034851 
	C2528.186523,746.142822 2523.525391,749.473389 2518.827393,752.743713 
	C2518.466797,752.994751 2518.312744,753.542542 2517.271973,755.248840 
	C2519.858154,755.248840 2521.796143,755.713684 2523.394287,755.173523 
	C2533.753906,751.671936 2543.884521,747.393982 2554.396240,744.470764 
	C2563.635986,741.901184 2573.213379,740.137878 2582.757812,739.201782 
	C2590.279785,738.464111 2595.950928,742.726868 2595.724854,748.259460 
	C2595.556152,752.379272 2593.290771,756.413269 2591.885254,760.712036 
	C2595.003174,759.399658 2598.565918,757.816406 2602.190918,756.391357 
	C2609.634033,753.465393 2616.938232,749.973206 2624.624512,747.944214 
	C2631.334961,746.172791 2633.960938,740.653625 2637.815430,736.324646 
	C2651.298584,721.181396 2670.189453,711.010803 2691.183594,720.502380 
	C2700.831543,724.864319 2706.316895,720.999207 2711.945312,715.384399 
	C2720.020264,707.328613 2727.347412,698.528687 2735.268555,690.311218 
	C2744.340088,680.900146 2753.907471,671.964233 2762.903564,662.484009 
	C2773.600586,651.211243 2783.300293,638.921997 2794.586914,628.300232 
	C2804.447510,619.020569 2815.553467,610.915955 2826.796387,603.307983 
	C2833.666260,598.659302 2839.770264,601.026367 2841.332275,608.201294 
	C2842.064941,611.566101 2840.864258,616.401917 2838.718994,619.150635 
	C2831.627197,628.238953 2824.390625,637.425049 2815.938477,645.190125 
	C2804.107910,656.059143 2790.814697,665.319275 2778.725098,675.926453 
	C2760.214111,692.167786 2741.817627,708.581177 2724.150635,725.723267 
	C2716.875732,732.782104 2708.994385,739.999939 2705.855957,750.418457 
	C2704.461182,755.048950 2706.600098,759.420166 2711.353027,759.833435 
	C2716.472412,760.278564 2721.727051,760.105103 2726.840820,759.503906 
	C2743.520752,757.543091 2759.024414,751.349976 2774.678711,745.724976 
	C2777.454346,744.727600 2780.417969,743.575256 2782.196045,747.562988 
	C2783.899658,751.383057 2783.418945,757.283569 2780.288574,758.799988 
	C2771.667725,762.975525 2763.092285,767.713867 2753.948242,770.223450 
	C2742.036133,773.492920 2729.657959,775.475769 2717.349854,776.701782 
	C2711.976318,777.237061 2706.073486,775.079651 2700.780029,773.138916 
	C2694.208008,770.729431 2691.395996,766.309265 2689.453125,758.245605 
	C2681.101318,764.195312 2672.995605,770.536621 2664.330566,775.988220 
	C2654.500000,782.172913 2643.913330,785.823669 2632.157715,781.098938 
	C2627.915039,779.393799 2624.893799,776.541138 2624.059814,772.009399 
	C2623.310547,767.939026 2621.607178,767.293640 2617.931396,768.959961 
	C2603.651611,775.433472 2589.327148,781.793701 2573.748535,784.702332 
	C2569.497559,785.495972 2565.655029,784.835327 2562.714844,781.991272 
	C2559.514648,778.895630 2559.098389,774.826904 2560.979980,770.649536 
	C2562.440186,767.407898 2563.827393,764.133301 2565.247070,760.873413 
	C2564.974365,760.343506 2564.701660,759.813599 2564.428955,759.283752 
	C2559.447510,760.806580 2554.424072,762.204834 2549.492920,763.875427 
	C2534.357666,769.003235 2519.266846,774.261963 2504.133789,779.397095 
	C2501.981201,780.127563 2499.715820,780.652588 2497.460449,780.924561 
	C2493.568115,781.394043 2489.069580,781.422119 2487.364258,777.505676 
	C2486.085938,774.569214 2486.127197,770.413147 2487.091309,767.262146 
	C2490.472168,756.209839 2498.924805,748.937866 2507.448242,741.833130 
	C2508.965088,740.568787 2510.323486,739.114380 2511.755127,737.747742 
	C2511.489502,737.370728 2511.224121,736.993652 2510.958740,736.616577 
	C2507.325684,739.224915 2503.778320,741.963623 2500.044434,744.418457 
	C2485.738525,753.824219 2471.666016,763.637268 2456.926270,772.312927 
	C2447.052246,778.124878 2435.801758,780.979431 2424.261475,781.802551 
	C2416.139648,782.381897 2406.509766,776.107239 2403.532227,767.803711 
	C2402.003662,763.541382 2400.053223,763.485535 2396.519531,764.770142 
	C2386.440918,768.434265 2376.432617,772.421753 2366.114990,775.258606 
	C2356.997314,777.765503 2347.449219,780.181702 2338.064209,776.387634 
	C2334.946533,775.127197 2332.146484,772.636047 2329.752930,770.171570 
	C2327.883057,768.246521 2326.561523,768.168335 2324.304688,769.227478 
	C2312.061768,774.972473 2299.947021,781.075623 2287.371094,785.988281 
	C2281.022949,788.468140 2273.881104,790.360962 2266.807617,787.863098 
	C2258.638916,784.978394 2255.255127,777.729126 2257.880127,769.289307 
	C2258.257324,768.077393 2258.532227,766.833679 2259.161133,764.434998 
	C2253.681641,766.607117 2248.825684,768.228638 2244.239014,770.414795 
	C2235.343994,774.654480 2226.606934,779.224487 2217.791748,783.632324 
	C2212.756836,786.149841 2207.481201,787.257568 2202.132080,784.979370 
	C2198.352783,783.369751 2196.039551,780.597046 2197.927246,776.098389 
	C2200.673584,769.552856 2203.445312,763.017944 2206.476318,755.838562 
	C2204.536133,756.289917 2202.301514,756.411255 2200.438721,757.306274 
	C2185.945557,764.270508 2171.648438,771.655212 2157.034180,778.349854 
	C2148.186523,782.402710 2139.520996,787.226868 2129.180420,787.127075 
	C2123.849609,787.075500 2120.789795,784.065369 2118.344971,780.415710 
	C2115.883057,776.740784 2117.315674,772.642090 2120.019775,769.626587 
	C2126.217529,762.714844 2132.637207,755.987610 2139.223145,749.443848 
	C2143.139404,745.552551 2147.542725,742.151367 2151.327637,737.746521 
	C2147.626221,739.282532 2143.811523,740.594482 2140.243896,742.395386 
	C2128.378418,748.384888 2116.331299,754.088684 2104.875977,760.793884 
	C2095.730713,766.147156 2087.558350,773.137146 2078.571289,778.793030 
	C2067.774414,785.587891 2056.648926,791.625549 2043.808105,794.286987 
	C2033.956665,796.328857 2026.634277,793.377197 2020.664429,786.038330 
	C2016.594849,781.035767 2017.235596,769.963745 2021.444214,763.075012 
	C2027.196289,753.659363 2034.373657,745.663391 2043.959229,739.997070 
	C2044.659546,739.583008 2045.572876,739.173584 2045.880127,738.522644 
	C2046.559692,737.083008 2046.916016,735.490784 2047.404297,733.960876 
	C2045.923462,733.977356 2044.119385,733.446960 2043.014526,734.099731 
	C2036.258057,738.092041 2029.654785,742.343994 2023.011108,746.526367 
	C2018.027344,749.663940 2013.235229,753.166626 2008.025146,755.863953 
	C2004.336914,757.773315 2000.103638,758.643005 1996.094727,759.917419 
	C1979.770996,765.106506 1963.583252,770.810364 1947.050537,775.218140 
	C1938.907593,777.389160 1930.136230,777.435303 1921.619995,777.877686 
	C1917.283081,778.102905 1914.467163,775.117371 1912.942383,771.064941 
	C1912.091431,768.803284 1911.137207,766.580566 1910.373047,764.694153 
	C1899.892456,768.935059 1889.969238,773.524902 1879.655518,776.932373 
	C1872.124878,779.420410 1864.125000,780.640808 1856.247681,781.870972 
	C1851.315308,782.641113 1844.688721,777.903381 1842.495728,772.994568 
	C1840.369141,768.234314 1841.921753,759.757996 1845.819458,755.726807 
	C1848.567017,752.885315 1851.495728,750.219116 1854.343506,747.474731 
	C1854.024292,747.080994 1853.704956,746.687317 1853.385742,746.293579 
	C1850.824219,748.134949 1847.880371,749.620117 1845.771484,751.883301 
	C1838.931152,759.224243 1829.795532,761.331177 1820.643799,762.802856 
	C1812.053345,764.184204 1803.271606,764.584351 1794.555664,764.884521 
	C1790.349121,765.029480 1786.094849,763.531128 1781.872925,763.587463 
	C1779.350586,763.621033 1776.072876,764.505493 1774.466553,766.240417 
	C1765.373047,776.062561 1754.215698,781.851624 1741.190308,783.913025 
	C1730.038086,785.677917 1721.792725,776.050049 1724.485474,764.969971 
	C1724.774414,763.781006 1724.813599,762.531433 1724.947632,761.474854 
	C1702.941284,768.291748 1681.354004,775.172729 1659.642334,781.635620 
	C1645.366699,785.885071 1635.110962,795.115051 1626.143677,806.447693 
	C1617.379761,817.523132 1608.278442,828.332886 1599.268311,839.212036 
	C1593.916504,845.673950 1589.017090,852.646606 1582.929443,858.335815 
	C1568.465454,871.852905 1553.699341,885.083679 1538.491089,897.753052 
	C1529.969849,904.851746 1519.322876,908.149109 1508.216064,910.522095 
	C1504.967163,910.882996 1501.931519,910.931946 1498.446533,910.907471 
M1598.080444,815.648743 
	C1598.979004,814.671631 1600.098267,813.816162 1600.720581,812.686768 
	C1601.513184,811.248352 1601.903442,809.588318 1602.467163,808.023865 
	C1600.888916,808.241577 1599.111450,808.063049 1597.764038,808.740051 
	C1587.373413,813.960693 1576.941284,819.121582 1566.771484,824.751465 
	C1558.210938,829.490479 1549.249512,833.943420 1541.780151,840.114319 
	C1529.884521,849.942017 1518.811523,860.825012 1507.941406,871.806763 
	C1503.184082,876.612976 1499.204346,882.472717 1498.991455,889.870605 
	C1498.890137,893.393677 1500.499146,895.212952 1504.050537,894.971436 
	C1506.315674,894.817322 1508.632935,894.650940 1510.806152,894.051697 
	C1524.517456,890.270996 1535.126709,881.389465 1545.237671,872.083435 
	C1555.389893,862.739502 1564.827393,852.620789 1574.639526,842.903564 
	C1576.852661,840.712097 1579.628662,839.036560 1581.611938,836.675293 
	C1587.196533,830.026672 1592.503174,823.144775 1598.080444,815.648743 
M1628.490845,753.120544 
	C1631.479126,751.805542 1634.870728,750.997070 1637.339844,749.030273 
	C1639.711548,747.140991 1642.694824,743.966797 1642.561646,741.511780 
	C1642.399292,738.521851 1639.912354,734.730713 1637.297363,732.962158 
	C1626.118408,725.401978 1607.830078,729.343262 1598.400024,736.323547 
	C1593.168823,740.195679 1593.042969,747.996643 1598.085938,751.421021 
	C1600.467896,753.038513 1603.345093,754.010620 1606.103394,754.973633 
	C1613.509155,757.559265 1620.663330,755.144104 1628.490845,753.120544 
M2396.899414,736.424133 
	C2386.970947,733.697937 2377.342773,735.695251 2368.152100,739.190918 
	C2361.229492,741.823975 2353.922119,744.677307 2350.984131,752.688416 
	C2349.192139,757.575195 2350.732910,760.101807 2355.770996,759.963684 
	C2371.112061,759.543457 2383.770996,751.686035 2396.650146,744.671082 
	C2399.611572,743.057922 2400.300293,739.866943 2396.899414,736.424133 
M2653.240479,763.942810 
	C2662.329102,756.962769 2671.498779,750.083313 2680.412598,742.886780 
	C2681.648438,741.889038 2682.562744,738.865906 2681.944580,737.604248 
	C2681.144043,735.970337 2678.695312,734.225647 2676.886963,734.148315 
	C2661.747559,733.500366 2651.276367,741.790466 2642.624268,753.014221 
	C2640.513428,755.752930 2641.293213,759.309875 2643.417480,761.510803 
	C2645.653320,763.827515 2648.564209,766.462341 2653.240479,763.942810 
z"/>
<path fill="#E10628" opacity="1.000000" stroke="none" 
	d="
M2330.540527,3.092337 
	C2337.457764,6.064756 2344.232666,8.420273 2350.290771,11.992011 
	C2358.952637,17.098738 2363.190186,25.829700 2365.499023,35.179569 
	C2368.801270,48.552734 2367.593750,61.534748 2359.864258,73.427109 
	C2352.859863,84.203857 2342.252930,89.916344 2330.193604,91.576393 
	C2317.642822,93.304115 2304.850342,92.869835 2293.593750,85.121361 
	C2279.045898,75.107407 2271.468750,58.362309 2274.844482,39.691044 
	C2278.168213,21.307188 2288.849609,10.028529 2306.193115,4.400445 
	C2307.271973,4.050416 2308.442871,3.985485 2309.783936,3.476919 
	C2316.690430,3.116843 2323.384277,3.067749 2330.540527,3.092337 
z"/>
<path fill="#E10628" opacity="1.000000" stroke="none" 
	d="
M1932.284424,377.616302 
	C1926.473633,359.017151 1920.667969,340.831726 1915.280884,322.523071 
	C1906.028076,291.076874 1896.989258,259.567322 1887.950073,228.058716 
	C1880.395996,201.726898 1872.741089,175.420303 1865.581299,148.980545 
	C1861.874878,135.293137 1859.153687,121.339203 1855.954834,107.513229 
	C1855.788818,106.795326 1855.317017,106.148148 1854.374268,104.202080 
	C1853.484009,112.254524 1852.482666,118.933105 1852.066650,125.647972 
	C1851.482788,135.068863 1851.358643,144.517654 1850.994995,153.952866 
	C1850.344482,170.826492 1849.735718,187.702240 1848.967773,204.570633 
	C1848.434570,216.283249 1847.617676,227.982635 1847.011108,239.692276 
	C1846.292603,253.562790 1845.679321,267.438721 1844.992676,281.310883 
	C1844.347290,294.351837 1843.673096,307.391357 1842.997437,320.430786 
	C1842.338989,333.137878 1841.687744,345.845398 1840.985840,358.550110 
	C1840.357300,369.925415 1839.660400,381.296906 1838.999756,392.670441 
	C1837.994629,409.980103 1837.016357,427.291443 1835.965332,444.598297 
	C1835.836792,446.713745 1835.097900,448.799957 1835.040649,450.910522 
	C1834.808838,459.458710 1834.802124,459.741943 1826.161133,459.955383 
	C1807.062866,460.427277 1787.959473,460.711853 1768.856567,460.945923 
	C1766.264160,460.977661 1763.498047,460.689423 1761.137939,459.740082 
	C1760.027100,459.293243 1759.041016,456.899017 1759.103027,455.434143 
	C1759.572266,444.387054 1760.353638,433.353638 1760.961670,422.311768 
	C1761.371094,414.879181 1761.705688,407.441620 1761.986572,400.002960 
	C1762.367920,389.901764 1762.525269,379.790405 1763.031006,369.696014 
	C1763.923340,351.880646 1764.975830,334.073059 1766.020874,316.265717 
	C1766.620117,306.055267 1767.360352,295.853180 1767.994751,285.644684 
	C1769.018188,269.169373 1769.988281,252.690750 1771.016724,236.215759 
	C1771.643677,226.173447 1772.340942,216.135529 1773.000610,206.095276 
	C1774.006714,190.785629 1774.984497,175.474106 1776.017334,160.166290 
	C1776.982910,145.854401 1777.905762,131.538574 1779.028076,117.238647 
	C1780.238281,101.816269 1781.744629,86.417130 1782.956909,70.994896 
	C1783.784424,60.467987 1784.178467,49.906425 1785.045044,39.383324 
	C1785.838867,29.746597 1787.006836,20.140696 1788.043091,10.203279 
	C1793.548584,9.788247 1798.775635,9.075295 1804.005493,9.053403 
	C1831.336182,8.938995 1858.667725,8.995955 1885.998901,9.002525 
	C1893.999146,9.004448 1895.996704,10.295820 1898.426636,17.916809 
	C1910.917725,57.093250 1923.401733,96.272308 1935.736694,135.498062 
	C1942.979614,158.530777 1950.221191,181.570633 1956.958496,204.753998 
	C1965.831299,235.286011 1974.388306,265.913269 1982.718140,296.598114 
	C1986.603027,310.908508 1989.634766,325.450500 1993.053101,339.887543 
	C1993.564819,340.011749 1994.076660,340.135956 1994.588501,340.260162 
	C1995.681152,337.608429 1997.010376,335.027527 1997.829224,332.293732 
	C2004.614990,309.638428 2011.149658,286.906952 2018.063232,264.291077 
	C2028.603394,229.810745 2039.015259,195.283966 2050.163086,160.998505 
	C2062.882568,121.880142 2076.348877,83.004585 2089.491943,44.024124 
	C2092.936035,33.810112 2096.536865,23.645035 2099.731201,13.353645 
	C2100.545654,10.729201 2101.650879,9.961683 2104.191650,9.965519 
	C2138.852051,10.017848 2173.512451,10.000741 2208.437744,10.000741 
	C2208.965576,15.985765 2209.648438,21.828865 2209.958496,27.691681 
	C2210.439209,36.786938 2210.550293,45.901653 2211.024414,54.997375 
	C2211.944336,72.644859 2212.985596,90.286163 2214.019775,107.927483 
	C2214.637695,118.470093 2215.390625,129.004883 2215.987793,139.548584 
	C2217.034424,158.022598 2217.980469,176.502319 2219.022949,194.976562 
	C2219.627197,205.686523 2220.388184,216.387665 2220.988770,227.097809 
	C2222.033447,245.738647 2222.982666,264.384857 2224.023193,283.025940 
	C2224.630371,293.902374 2225.383545,304.770599 2225.989502,315.647095 
	C2227.028564,334.288177 2227.992920,352.933350 2229.010254,371.575623 
	C2229.658691,383.449982 2230.314453,395.324158 2231.023193,407.195007 
	C2231.987305,423.340149 2233.010986,439.481750 2233.989746,455.626007 
	C2234.068115,456.918671 2234.000000,458.220154 2234.000000,460.090759 
	C2228.526855,460.409943 2223.469238,460.931793 2218.408936,460.959442 
	C2199.744141,461.061523 2181.078857,461.010468 2162.413574,460.994324 
	C2155.950439,460.988739 2153.274170,458.530792 2153.010254,452.273132 
	C2152.312500,435.737976 2151.680420,419.200043 2150.996338,402.664307 
	C2150.346191,386.957275 2149.721191,371.248810 2148.976318,355.546143 
	C2148.405029,343.501740 2147.645264,331.466400 2147.005127,319.425140 
	C2146.312012,306.386536 2145.639160,293.346741 2144.997803,280.305511 
	C2144.307617,266.266998 2143.506592,252.231415 2143.034912,238.185135 
	C2142.239502,214.483765 2141.677246,190.774597 2140.993164,167.069412 
	C2140.691650,156.632187 2140.448975,146.191238 2139.966309,135.761856 
	C2139.455566,124.725891 2138.691650,113.701668 2137.115234,102.308830 
	C2136.414551,103.752716 2135.488770,105.131226 2135.047119,106.650421 
	C2129.309326,126.379768 2124.122559,146.283707 2117.853516,165.841263 
	C2104.898193,206.258179 2091.519287,246.541458 2078.050049,286.791077 
	C2060.536865,339.124786 2042.776001,391.375641 2025.096802,443.653656 
	C2021.930420,453.016907 2021.638428,454.615936 2009.560303,454.920563 
	C1995.903320,455.264984 1982.231079,455.002319 1968.565430,454.999207 
	C1959.218628,454.997101 1955.833862,452.647339 1953.053589,443.816742 
	C1946.148438,421.884003 1939.330688,399.923767 1932.284424,377.616302 
z"/>
<path fill="#E10628" opacity="1.000000" stroke="none" 
	d="
M409.936646,397.106628 
	C407.172272,385.676941 405.742279,374.701477 406.758362,363.176056 
	C407.910767,350.105011 410.704865,337.676910 415.987640,325.762665 
	C422.283325,311.564117 431.448334,299.612579 443.533081,289.725677 
	C467.987244,269.718964 496.782776,260.306030 527.246277,255.087112 
	C538.706543,253.123795 550.342346,252.026932 561.942749,251.084854 
	C572.994385,250.187378 584.104187,250.006302 595.915222,249.477753 
	C598.687805,234.433701 595.008240,220.738510 585.170715,208.759903 
	C575.739990,197.276657 562.752380,192.648254 548.460449,191.002609 
	C514.211609,187.059036 482.331604,194.906418 452.026428,210.492462 
	C450.593109,211.229614 449.254425,212.150787 446.851013,213.602936 
	C444.209869,206.305832 441.475616,199.405930 439.218719,192.353256 
	C436.287537,183.193405 434.019928,173.814224 430.889404,164.728363 
	C429.529816,160.782440 430.958099,158.818680 433.831055,157.057907 
	C447.325745,148.787216 461.868896,142.722565 477.200958,139.246292 
	C491.514221,136.001022 506.115387,133.551910 520.723633,132.214279 
	C535.397400,130.870667 550.300537,130.306763 564.988647,131.227753 
	C590.796997,132.845993 615.346924,139.616501 636.488770,155.291687 
	C655.100159,169.090683 667.066711,187.879532 672.781982,210.103394 
	C676.307373,223.811691 677.798828,238.055740 679.948181,252.098312 
	C680.693909,256.970032 680.871643,261.955475 680.965454,266.895508 
	C681.378784,288.659241 681.802246,310.424500 681.935303,332.190948 
	C681.990967,341.290192 681.014221,350.395630 681.067505,359.494995 
	C681.173340,377.595764 681.514587,395.698792 682.049805,413.792267 
	C682.475037,428.170197 683.254822,442.539734 684.053711,456.903168 
	C684.260803,460.625336 682.712036,462.007355 679.249023,462.005096 
	C656.766235,461.990326 634.283447,461.997559 611.384277,461.997559 
	C609.120728,450.967804 606.881470,440.056458 604.535828,428.626312 
	C597.629944,434.261597 591.331482,439.722412 584.702576,444.747253 
	C568.102112,457.330688 549.629944,465.465057 528.786072,468.059662 
	C508.023651,470.644196 487.681885,468.949341 467.993286,461.978180 
	C446.784027,454.468597 430.159180,441.037689 419.625122,420.948456 
	C415.720520,413.502136 413.157135,405.352509 409.936646,397.106628 
M528.421387,313.901672 
	C527.507507,314.260864 526.594421,314.622162 525.679626,314.978973 
	C511.668671,320.443176 500.017853,328.401733 493.501892,342.790375 
	C488.742126,353.300873 489.473541,364.125946 490.596680,374.880585 
	C491.454956,383.099243 495.017975,390.861847 501.250122,396.468597 
	C509.753540,404.118805 520.297302,408.118347 531.604492,408.875610 
	C549.635620,410.083099 565.702393,404.272125 579.073181,392.253571 
	C590.661194,381.837524 598.444275,368.896240 598.912354,352.867035 
	C599.383362,336.733887 599.015991,320.576202 599.015991,304.014130 
	C574.856079,303.873779 551.509155,305.172424 528.421387,313.901672 
z"/>
<path fill="#E10628" opacity="1.000000" stroke="none" 
	d="
M2791.994873,130.000000 
	C2812.881592,129.782272 2832.830322,132.628403 2851.809082,140.139587 
	C2870.078857,147.370163 2885.200928,159.014206 2897.016113,174.901550 
	C2908.371826,190.171112 2915.256104,207.338654 2918.779053,225.848526 
	C2920.187500,233.247986 2920.826904,240.888321 2920.913330,248.429352 
	C2921.423096,292.861176 2921.515381,337.297943 2922.072510,381.728973 
	C2922.304932,400.273987 2923.280762,418.811218 2924.029541,437.347504 
	C2924.340820,445.061554 2924.941162,452.763947 2925.442139,461.000000 
	C2918.890625,461.000000 2913.268555,461.000000 2907.646240,461.000000 
	C2892.813965,461.000000 2877.973145,460.686188 2863.152100,461.094116 
	C2850.066650,461.454285 2850.556152,457.537415 2848.989014,447.222137 
	C2848.038330,440.962006 2846.990479,434.716583 2845.843994,427.581024 
	C2841.049805,431.683777 2836.702148,435.154785 2832.635742,438.929291 
	C2817.927002,452.582489 2800.279053,460.493256 2781.012451,464.845062 
	C2758.150879,470.008942 2735.002441,470.487854 2712.792969,462.643616 
	C2685.705566,453.076508 2666.088379,434.918610 2654.751465,407.868805 
	C2648.275391,392.417145 2646.766602,376.492676 2648.195801,360.383698 
	C2650.719482,331.937073 2662.374512,307.551788 2684.590820,289.055511 
	C2700.640625,275.693390 2719.196533,266.554626 2739.278076,261.221313 
	C2754.227295,257.251038 2769.546387,254.401230 2784.864014,252.174225 
	C2797.875000,250.282562 2811.121094,250.013428 2824.259766,248.984116 
	C2827.369385,248.740494 2830.635498,248.809052 2833.499512,247.797943 
	C2835.029785,247.257675 2836.694092,244.807388 2836.873535,243.071732 
	C2839.693604,215.805359 2822.321289,197.558853 2798.610840,191.936874 
	C2783.248291,188.294205 2768.071533,188.836853 2752.574219,190.809189 
	C2732.329102,193.385727 2713.431152,199.632431 2695.371826,208.852707 
	C2693.929199,209.589188 2692.354980,210.086380 2690.811523,210.603699 
	C2688.160889,211.491989 2686.747559,210.955841 2685.817139,207.818954 
	C2680.997314,191.567673 2675.855469,175.411804 2670.754639,158.992935 
	C2684.723389,149.614288 2699.813721,143.125916 2715.868896,139.209824 
	C2729.339355,135.924103 2742.979492,132.979477 2756.716553,131.249283 
	C2768.180420,129.805359 2779.893311,130.341034 2791.994873,130.000000 
M2804.650146,305.002411 
	C2802.882324,305.334076 2801.126709,305.771027 2799.344482,305.980927 
	C2784.277588,307.755402 2769.723633,311.163239 2756.429199,318.879761 
	C2745.381348,325.292419 2737.091553,333.996490 2733.026367,346.322479 
	C2730.590088,353.709351 2729.528809,361.354553 2731.124268,368.947021 
	C2732.515381,375.565674 2733.762939,382.700378 2737.189209,388.316559 
	C2748.545166,406.929688 2771.171631,411.413818 2791.317871,406.237305 
	C2802.276611,403.421539 2811.864014,398.050537 2820.386230,390.403778 
	C2828.671875,382.969055 2834.663574,374.200104 2837.939453,363.732666 
	C2843.147461,347.088867 2840.801270,329.859375 2840.805420,312.878632 
	C2840.807617,304.305176 2838.445801,302.741333 2829.678223,303.076294 
	C2821.626221,303.383942 2813.598389,304.333496 2804.650146,305.002411 
z"/>
<path fill="#E10628" opacity="1.000000" stroke="none" 
	d="
M747.244141,423.759216 
	C737.218567,408.957275 732.536255,392.512268 728.998657,375.631500 
	C724.398804,353.681854 723.877930,331.450043 723.946289,309.125916 
	C724.111694,255.134369 724.043945,201.141891 723.925842,147.150116 
	C723.915100,142.247513 725.026184,139.977448 730.543579,139.876816 
	C750.417175,139.514328 770.278992,138.539078 790.151917,138.087830 
	C795.211548,137.972931 800.295715,138.938126 805.887878,139.455063 
	C806.250977,144.182693 806.943359,149.058670 806.950989,153.935715 
	C807.030457,204.761429 806.623352,255.591492 807.186768,306.411072 
	C807.409973,326.544342 809.176697,346.735260 815.942871,366.046326 
	C822.995056,386.173584 839.379822,398.178101 860.929443,400.204132 
	C881.557312,402.143494 898.468079,395.307465 912.306458,380.949921 
	C925.588867,367.169220 932.999756,350.407654 932.999878,330.863495 
	C933.000122,269.872498 933.000000,208.881485 933.000000,147.890488 
	C933.000000,145.896194 933.000000,143.901901 933.000000,141.088776 
	C960.217957,136.765823 987.374451,137.082977 1016.000000,139.967667 
	C1016.000000,147.581451 1016.000000,154.648773 1016.000000,161.716110 
	C1016.000000,243.704025 1015.896667,325.692169 1016.090332,407.679626 
	C1016.127441,423.386383 1017.340881,439.090057 1017.989807,454.796051 
	C1018.064880,456.612366 1018.000000,458.434509 1018.000000,460.626465 
	C994.037109,460.626465 970.312256,460.626465 945.876343,460.626465 
	C944.132202,446.385345 942.372070,432.013702 940.529907,416.971863 
	C934.785889,423.062134 929.382263,428.800049 923.969238,434.529175 
	C908.489990,450.912598 889.302734,461.003143 867.610535,465.821014 
	C838.036499,472.389404 809.053284,470.108734 781.863098,455.851715 
	C767.683716,448.416901 755.931274,437.896484 747.244141,423.759216 
z"/>
<path fill="#E10628" opacity="1.000000" stroke="none" 
	d="
M1378.000000,163.095795 
	C1377.665649,173.852127 1377.307617,184.119644 1377.010742,194.388962 
	C1376.919678,197.540390 1375.806274,199.040573 1372.267334,199.071899 
	C1350.999634,199.260086 1329.734131,199.679657 1308.467285,199.992020 
	C1302.209106,200.083939 1301.005249,201.234268 1301.004272,207.584091 
	C1300.996338,255.412033 1300.802734,303.241364 1301.140137,351.066925 
	C1301.223389,362.886749 1304.074219,374.422363 1309.988892,384.935181 
	C1315.343262,394.452301 1324.043945,398.554779 1334.411743,398.897522 
	C1347.325439,399.324371 1360.264038,398.999969 1373.715454,398.999969 
	C1373.500122,398.564453 1373.886353,398.986115 1373.895630,399.415955 
	C1374.284790,417.349060 1374.640259,435.282867 1375.000244,453.216583 
	C1375.102905,458.330322 1372.180054,460.967468 1367.562256,461.999146 
	C1353.797119,465.074310 1339.996460,467.450500 1325.805176,468.203644 
	C1308.336182,469.130676 1291.525391,467.257080 1275.195190,461.080231 
	C1248.563965,451.007019 1231.416748,432.876831 1225.847046,404.280975 
	C1222.280640,385.970245 1219.920410,367.667053 1219.903687,348.958801 
	C1219.861694,301.860046 1219.329956,254.761765 1219.005005,207.663223 
	C1218.965576,201.949371 1217.726440,200.266464 1212.104858,200.064682 
	C1204.746704,199.800598 1197.369507,200.110138 1190.005127,199.952850 
	C1186.403442,199.875916 1182.786743,199.464188 1179.222900,198.909042 
	C1175.162231,198.276520 1174.084351,195.020050 1174.057495,191.610016 
	C1173.936646,176.279358 1173.954834,160.946884 1174.062012,145.616043 
	C1174.076538,143.550964 1174.880249,141.491394 1175.375610,139.160934 
	C1189.751343,138.451416 1204.071533,137.744644 1219.000000,137.007858 
	C1219.000000,134.911697 1219.000000,133.138580 1219.000000,131.365448 
	C1219.000000,112.534241 1218.993408,93.703026 1219.003052,74.871819 
	C1219.007080,67.036659 1220.695923,64.805771 1228.375122,62.890106 
	C1249.416626,57.640999 1270.459351,52.393688 1291.544556,47.324074 
	C1294.026245,46.727367 1296.775513,47.243034 1300.386230,47.243034 
	C1300.386230,77.365593 1300.386230,107.379539 1300.386230,138.000000 
	C1303.134521,138.000000 1304.904907,137.999985 1306.675293,137.999985 
	C1328.006226,138.000015 1349.337524,138.065994 1370.667725,137.933746 
	C1374.133179,137.912262 1375.791260,138.877213 1376.052368,142.500320 
	C1376.536133,149.214691 1377.333252,155.906494 1378.000000,163.095795 
z"/>
<path fill="#E10628" opacity="1.000000" stroke="none" 
	d="
M2406.000000,253.000000 
	C2406.000000,191.001053 2405.926270,129.501953 2406.045898,68.003235 
	C2406.080811,50.065849 2406.628174,32.128624 2407.049561,14.193887 
	C2407.102295,11.947540 2407.823242,9.716882 2408.312012,7.055848 
	C2414.094971,6.701847 2419.823975,6.277669 2425.560547,6.017044 
	C2434.327881,5.618735 2443.101562,5.037282 2451.870361,5.071796 
	C2463.974854,5.119441 2476.078369,5.651384 2488.181152,6.011307 
	C2492.022217,6.125533 2494.062744,7.570168 2494.085938,12.029457 
	C2494.262451,45.800140 2494.804443,79.568947 2494.973145,113.339638 
	C2495.389160,196.608246 2495.770264,279.877350 2495.939209,363.146698 
	C2495.992920,389.582550 2495.408691,416.021240 2494.944336,442.455566 
	C2494.834473,448.714691 2494.029297,454.961578 2493.512695,461.617065 
	C2465.722900,461.617065 2437.664307,461.617065 2409.259766,461.617065 
	C2408.860352,459.871246 2408.113770,458.005096 2408.052734,456.116699 
	C2407.622803,442.849640 2407.136230,429.579468 2407.034668,416.307465 
	C2406.618408,362.038849 2406.333496,307.769257 2406.000000,253.000000 
z"/>
<path fill="#E10628" opacity="1.000000" stroke="none" 
	d="
M2537.000000,423.000000 
	C2537.000000,286.042145 2536.999756,149.584274 2537.000244,13.126410 
	C2537.000244,6.002793 2537.002441,6.000661 2544.014404,6.000385 
	C2569.006836,5.999403 2593.999023,6.000002 2618.991455,6.000002 
	C2620.793701,6.000002 2622.595703,6.000002 2624.321777,6.000002 
	C2626.568604,17.809217 2626.690918,445.544861 2624.452637,461.000000 
	C2623.074219,461.000000 2621.618652,461.000000 2620.163086,461.000000 
	C2594.670898,461.000000 2569.178955,461.005249 2543.686768,460.996185 
	C2537.609375,460.994049 2537.014648,460.414825 2537.004639,454.490967 
	C2536.987305,444.160675 2537.000000,433.830322 2537.000000,423.000000 
z"/>
<path fill="#E10628" opacity="1.000000" stroke="none" 
	d="
M1061.000000,125.000000 
	C1061.000000,85.257942 1061.000000,46.015881 1061.000000,5.886031 
	C1089.621948,5.886031 1117.025391,5.886031 1144.714355,5.886031 
	C1144.714355,157.755386 1144.714355,309.091736 1144.714355,460.714111 
	C1117.660156,460.714111 1090.736450,460.714111 1063.495728,460.714111 
	C1063.004761,454.667816 1062.147827,448.486755 1062.059448,442.294708 
	C1061.598389,410.040161 1061.183716,377.783447 1061.039185,345.526215 
	C1060.871338,308.043274 1061.106934,270.558563 1060.955078,233.075485 
	C1060.878418,214.145569 1060.088379,195.217728 1060.073120,176.288589 
	C1060.059448,159.359314 1060.666626,142.429550 1061.000000,125.000000 
z"/>
<path fill="#E10628" opacity="1.000000" stroke="none" 
	d="
M802.063843,711.611694 
	C815.471313,720.452209 817.026123,734.536072 805.500183,743.797913 
	C801.738525,746.820679 797.185425,749.124634 792.649170,750.850342 
	C786.900146,753.037415 780.663391,753.941406 774.911255,756.122131 
	C772.306274,757.109680 770.362366,759.840698 768.118530,761.780762 
	C770.382935,763.871277 772.382080,767.256714 774.966064,767.785889 
	C780.542664,768.927734 786.709473,769.877625 792.120850,768.646667 
	C810.547974,764.454956 828.961670,759.944580 846.963928,754.240845 
	C858.037842,750.732300 868.553894,745.214233 878.913757,739.817749 
	C883.313660,737.525696 886.622864,733.176025 890.517151,729.866638 
	C894.325500,726.630371 898.835022,727.020081 902.450623,729.418030 
	C906.485657,732.094177 904.964844,736.795776 904.629761,740.871582 
	C904.365417,744.087708 904.323792,747.322021 904.183289,750.548279 
	C907.564026,749.750000 911.280640,749.594238 914.263550,748.034912 
	C923.833008,743.032532 932.966431,737.177246 942.638855,732.402039 
	C945.383301,731.047119 949.948608,731.145935 952.707458,732.523499 
	C958.311523,735.321716 958.309326,742.752808 952.823853,745.914246 
	C946.766418,749.405151 940.068359,751.768311 933.907776,755.100525 
	C927.444031,758.596558 921.134949,762.434631 915.047729,766.551392 
	C910.831299,769.402954 911.323425,771.832520 915.813354,774.390747 
	C921.178589,777.447571 926.846252,776.819458 932.446472,775.736755 
	C952.618591,771.836914 971.173279,763.993530 988.158630,752.429688 
	C988.968567,751.878235 989.904053,751.512573 990.775085,751.049133 
	C1001.413391,745.390503 1012.067078,739.760315 1022.668579,734.033386 
	C1024.084839,733.268372 1025.339233,732.116089 1026.493774,730.967468 
	C1037.363403,720.153137 1048.279419,709.383118 1058.991699,698.414429 
	C1062.773438,694.542053 1066.104614,690.216919 1069.506104,685.989563 
	C1072.766846,681.937012 1078.892212,679.689026 1082.031616,681.599731 
	C1086.454224,684.291626 1088.332520,691.566284 1085.075684,696.352844 
	C1080.293091,703.381897 1074.936768,710.026245 1069.712280,716.747009 
	C1066.808594,720.482361 1063.676636,724.040283 1060.647461,727.678101 
	C1060.790771,728.188904 1060.934082,728.699646 1061.077271,729.210388 
	C1063.213867,729.210388 1065.389160,729.471924 1067.479736,729.161499 
	C1073.771118,728.227173 1079.995239,726.479797 1086.307373,726.113647 
	C1103.429810,725.120361 1108.201294,741.440857 1103.333252,752.092773 
	C1101.389648,756.345520 1098.710205,760.261963 1095.745483,765.407898 
	C1100.569092,764.370789 1104.868774,763.900330 1108.846680,762.509399 
	C1123.171875,757.500549 1137.404785,752.224854 1151.612915,746.890808 
	C1152.678101,746.490906 1153.531372,744.946594 1154.045898,743.746765 
	C1161.944336,725.329407 1175.221436,713.276001 1195.081177,709.102844 
	C1201.654541,707.721558 1212.230469,713.625549 1215.669922,720.253662 
	C1220.032349,728.659851 1219.054565,735.350220 1212.674316,741.846130 
	C1204.953125,749.707031 1194.924927,752.566895 1184.673218,755.004883 
	C1182.148438,755.605347 1179.479980,755.949219 1177.170532,757.034424 
	C1172.306885,759.319885 1172.043945,764.260559 1176.713745,766.778687 
	C1179.063721,768.045776 1181.931763,768.728699 1184.620972,768.928284 
	C1200.505981,770.106873 1215.595947,765.978516 1230.431519,761.138062 
	C1244.067749,756.688904 1257.787354,752.199402 1270.812134,746.279724 
	C1279.015137,742.551575 1285.747314,735.718689 1293.612183,731.080200 
	C1302.128662,726.057434 1311.027588,721.584900 1320.085815,717.616821 
	C1325.233032,715.361938 1335.525391,719.840759 1338.908325,724.661804 
	C1343.858765,731.716675 1344.631348,739.205566 1340.295532,745.169189 
	C1336.150146,750.871033 1331.485962,756.207092 1326.885498,761.562744 
	C1324.051392,764.862183 1320.194702,768.422424 1322.653687,772.724487 
	C1325.333618,777.412781 1330.757324,775.521301 1334.286865,773.666199 
	C1345.690430,767.672485 1356.906982,761.269714 1367.855591,754.476624 
	C1381.947998,745.733154 1394.002441,734.473633 1405.180298,722.287170 
	C1410.533691,716.450439 1415.464966,710.207397 1421.041260,704.599792 
	C1426.028320,699.584839 1431.868896,695.422546 1436.902344,690.448486 
	C1440.983154,686.415588 1444.405762,681.719604 1448.157104,677.349304 
	C1450.423096,674.709167 1449.632446,672.680786 1446.605957,671.960510 
	C1443.620117,671.249939 1440.442749,671.047485 1437.358276,671.103027 
	C1427.585693,671.278931 1417.815308,671.901794 1408.049072,671.809570 
	C1406.053589,671.790710 1403.070557,669.801453 1402.385376,668.014160 
	C1401.722534,666.285400 1402.749390,662.728760 1404.253052,661.602539 
	C1407.115845,659.458191 1410.746460,657.538330 1414.234375,657.162903 
	C1433.007690,655.142090 1450.531494,648.916626 1467.661377,641.575378 
	C1479.227661,636.618408 1490.438599,630.793518 1501.607666,624.971680 
	C1505.028564,623.188538 1507.918213,620.276489 1510.822144,617.629944 
	C1523.417236,606.150818 1535.789185,594.420776 1548.596191,583.185364 
	C1550.912354,581.153503 1554.827148,580.531067 1558.112183,580.118103 
	C1562.539307,579.561462 1566.077759,581.906128 1568.171387,585.719849 
	C1570.406982,589.792419 1568.507080,593.894958 1565.754272,596.474609 
	C1559.118530,602.693176 1552.350708,609.038513 1544.700684,613.843140 
	C1533.778442,620.702942 1523.050903,627.533264 1514.245361,637.133362 
	C1510.119385,641.631775 1505.258301,645.449158 1500.885498,649.733582 
	C1499.974365,650.626343 1498.956299,652.756653 1499.375000,653.371094 
	C1500.173584,654.542969 1501.989624,655.735779 1503.351807,655.700745 
	C1520.391235,655.260986 1537.421143,654.423401 1554.461426,654.057373 
	C1567.788330,653.771057 1581.132324,653.746948 1594.457886,654.062866 
	C1611.837769,654.474854 1629.211914,655.230652 1646.577515,656.070496 
	C1651.956665,656.330627 1657.419556,656.859619 1662.627197,658.144592 
	C1668.617188,659.622742 1670.796021,664.488831 1668.886230,670.133362 
	C1667.598389,673.940125 1662.122192,675.976868 1657.424683,675.283691 
	C1644.135498,673.322632 1630.822388,671.407227 1617.456055,670.128540 
	C1609.984253,669.413818 1602.387207,670.071716 1594.848022,669.987122 
	C1568.077759,669.686829 1541.308350,669.315247 1514.538086,669.011719 
	C1507.510010,668.932007 1500.479126,668.918518 1493.451660,669.020447 
	C1484.032471,669.156982 1477.249634,674.658752 1470.886597,680.670654 
	C1460.864502,690.139587 1450.753296,699.539673 1441.180786,709.452637 
	C1427.378418,723.745667 1413.945312,738.399292 1400.534790,753.063904 
	C1397.123901,756.793762 1394.107788,760.972046 1391.480225,765.291077 
	C1390.317261,767.202576 1389.935913,770.137146 1390.473999,772.288574 
	C1390.717041,773.260254 1394.242920,774.240051 1395.986084,773.862366 
	C1403.126831,772.315063 1410.257568,770.559570 1417.192993,768.275696 
	C1423.382812,766.237366 1429.529175,763.822449 1435.300415,760.816956 
	C1442.973389,756.821045 1450.364502,752.249084 1457.672974,747.604431 
	C1460.904785,745.550659 1464.985352,742.908691 1467.190308,746.304810 
	C1469.112183,749.264832 1469.659180,755.529785 1467.767578,758.028992 
	C1464.310669,762.596436 1458.954468,766.110474 1453.768677,768.913635 
	C1437.929321,777.475464 1421.884521,785.973389 1403.997559,789.272522 
	C1396.077637,790.733398 1387.641724,790.573792 1379.583496,789.748352 
	C1372.711670,789.044434 1367.690918,784.615417 1365.930054,777.342346 
	C1365.301758,774.746643 1363.845703,774.597290 1361.510620,775.924072 
	C1352.563843,781.007446 1343.670288,786.239258 1334.413452,790.703674 
	C1327.762939,793.911133 1320.419800,796.157043 1312.940308,794.795959 
	C1300.253296,792.487183 1291.345459,780.506836 1298.829834,765.684448 
	C1303.452759,756.529175 1309.423340,748.388367 1318.402710,742.803101 
	C1321.447021,740.909607 1324.048828,738.305054 1326.936279,735.957642 
	C1325.171387,733.196655 1323.965576,732.417175 1320.923218,734.350891 
	C1308.111572,742.494446 1294.625977,749.624268 1282.127197,758.203247 
	C1262.127686,771.930359 1239.189331,777.040100 1216.202026,781.847961 
	C1205.654907,784.053955 1194.633789,783.965149 1183.837158,785.013428 
	C1170.233032,786.334229 1158.733398,777.728271 1154.021240,764.288757 
	C1148.264038,766.224243 1142.385864,767.902161 1136.735840,770.152832 
	C1115.134888,778.757385 1092.703125,784.535400 1070.124390,789.747620 
	C1066.008423,790.697754 1061.406616,790.498291 1057.186035,789.833252 
	C1049.324341,788.594421 1046.999146,777.228577 1053.285278,770.389587 
	C1055.669312,767.795898 1058.876099,765.817627 1061.993530,764.067810 
	C1068.854004,760.217285 1075.988892,756.851868 1082.806763,752.931824 
	C1084.802124,751.784485 1086.353760,749.593323 1087.635376,747.579285 
	C1088.399170,746.378784 1088.864136,743.544067 1088.385254,743.259644 
	C1086.759644,742.294434 1084.355347,741.275757 1082.783203,741.820435 
	C1075.897949,744.205994 1069.121094,746.953552 1062.450073,749.898865 
	C1042.397705,758.752197 1025.232666,771.950317 1009.140808,786.514709 
	C997.442078,797.102966 986.540466,808.566406 975.039917,819.380676 
	C964.324585,829.456543 953.351562,839.262329 942.362305,849.041260 
	C937.616699,853.264282 931.786377,853.009399 928.410706,848.857605 
	C925.702515,845.526550 926.873474,838.395752 930.565796,834.922913 
	C942.643555,823.562927 954.605652,812.079041 966.751953,800.793152 
	C977.893921,790.440369 989.224182,780.290466 1000.448914,770.026489 
	C1001.632141,768.944580 1002.663574,767.696777 1003.215393,765.715271 
	C1001.441467,766.668274 999.703430,767.696655 997.887695,768.562012 
	C985.756531,774.343567 973.821838,780.609375 961.408325,785.707336 
	C948.098633,791.173401 933.970398,793.738708 919.518127,792.870667 
	C913.818848,792.528320 908.553528,790.540344 904.265320,785.936462 
	C896.148438,777.221985 893.822205,777.137817 883.258301,782.287598 
	C879.303040,784.215698 875.222473,785.946228 871.069031,787.393555 
	C865.782532,789.235718 861.744446,787.659790 859.800110,783.354797 
	C857.599976,778.483215 860.041199,775.482056 864.124146,773.383545 
	C870.348389,770.184326 876.668823,767.172302 882.898499,763.983337 
	C884.039856,763.399048 885.451172,762.541138 885.850037,761.476868 
	C886.638794,759.372070 886.807068,757.034851 887.231873,754.793701 
	C885.477234,755.198181 883.486816,755.206238 882.013000,756.082886 
	C877.902588,758.527954 874.312317,762.092957 869.964233,763.843811 
	C859.691650,767.980225 849.100952,771.327271 838.634888,774.982178 
	C818.115906,782.147766 797.056580,785.606018 775.259033,785.099915 
	C762.702332,784.808228 751.151489,774.484436 748.862854,762.224731 
	C745.711121,745.341492 751.851990,732.670410 764.393799,721.963196 
	C771.372986,716.004822 778.524902,710.456116 787.909729,709.711365 
	C792.463623,709.350037 797.156799,710.743530 802.063843,711.611694 
M790.528259,730.978516 
	C791.268188,729.245483 792.008179,727.512512 793.183044,724.760925 
	C784.827942,726.808350 778.854492,730.139160 774.082397,735.520142 
	C773.597107,736.067322 773.730042,737.162720 773.576172,738.003723 
	C774.419556,738.136963 775.437744,738.643738 776.078369,738.343811 
	C780.762634,736.151062 785.370972,733.796387 790.528259,730.978516 
M1196.193604,726.010986 
	C1188.379517,726.838745 1182.993042,731.584778 1177.099976,737.520996 
	C1179.046509,738.166138 1180.479614,739.171082 1181.213257,738.798584 
	C1186.112427,736.310852 1190.977295,733.705444 1195.572998,730.708374 
	C1196.608765,730.032959 1196.536865,727.658936 1196.193604,726.010986 
M1475.442139,652.045715 
	C1476.323975,651.035095 1477.205811,650.024414 1478.087646,649.013794 
	C1477.836914,648.653809 1477.586304,648.293884 1477.335693,647.933899 
	C1470.369385,650.950134 1463.403076,653.966370 1456.436890,656.982605 
	C1463.555054,658.570129 1469.524658,656.546265 1475.442139,652.045715 
z"/>
<path fill="#E10628" opacity="1.000000" stroke="none" 
	d="
M2362.000000,259.000000 
	C2362.000000,326.442902 2362.000000,393.385803 2362.000000,460.664124 
	C2334.309326,460.664124 2306.935791,460.664124 2279.000000,460.664124 
	C2279.000000,458.635376 2279.000000,456.691284 2279.000000,454.747162 
	C2279.000000,352.130554 2279.000000,249.513962 2279.000000,146.897369 
	C2279.000000,137.377594 2279.255127,137.058243 2289.024414,137.016037 
	C2303.350586,136.954147 2317.677002,137.000031 2332.003418,137.000000 
	C2339.166504,136.999985 2346.329834,136.985443 2353.492920,137.004318 
	C2360.109619,137.021744 2361.993896,138.904770 2361.995605,145.555527 
	C2362.004883,183.203690 2362.000000,220.851837 2362.000000,259.000000 
z"/>
<path fill="#E10628" opacity="1.000000" stroke="none" 
	d="
M577.570068,678.974487 
	C573.029846,677.886475 570.924194,674.791992 571.229126,670.983826 
	C571.599731,666.355408 573.940430,662.960083 579.270691,661.878540 
	C586.902222,660.330017 594.763062,658.910461 601.823792,655.827698 
	C609.045349,652.674561 615.962158,648.231445 622.027466,643.172302 
	C629.601562,636.854736 635.867676,628.994263 643.230347,622.393127 
	C662.255188,605.336243 681.160095,588.096619 700.995728,572.019226 
	C707.975464,566.361938 717.238464,563.003357 725.967468,560.152466 
	C737.150269,556.500305 749.457153,566.809753 750.085510,578.647522 
	C750.685669,589.953491 744.910583,598.591553 738.585205,606.677673 
	C729.505249,618.285095 718.088074,627.715515 704.943237,634.248596 
	C689.600342,641.874146 673.645752,648.297668 657.815125,654.903870 
	C644.899719,660.293518 630.746948,663.190491 620.090088,673.056519 
	C613.549805,679.111511 607.434448,685.652344 601.421692,692.242737 
	C595.323975,698.926270 589.832520,706.169128 583.646667,712.764832 
	C564.817322,732.841492 545.767212,752.711060 526.832947,772.689514 
	C520.564270,779.303772 522.205383,786.231384 532.561340,790.909912 
	C541.693970,795.035828 551.421875,798.335938 561.226013,800.351074 
	C571.946594,802.554626 583.037476,803.244568 594.006958,803.790588 
	C597.784302,803.978638 601.290161,803.672729 604.414795,806.107910 
	C608.272583,809.114380 607.716248,814.504883 603.537659,817.195374 
	C597.000977,821.404114 589.727783,821.518738 582.502991,820.907104 
	C572.550415,820.064575 562.657349,818.533691 552.730347,817.370056 
	C539.466614,815.815186 528.337769,809.373596 517.598389,802.072815 
	C507.806763,795.416199 498.418243,793.926453 487.565552,800.871826 
	C474.760498,809.066406 460.398834,813.037781 444.937531,814.327271 
	C432.775604,815.341675 423.816345,808.664917 421.634979,799.020020 
	C419.861481,791.178467 423.730591,784.562012 428.654327,778.977356 
	C439.034485,767.203613 451.958557,760.271057 467.905365,758.854431 
	C475.680725,758.163696 482.837677,759.210327 489.518524,762.916626 
	C502.897186,770.338562 508.205536,768.201111 518.962402,758.065369 
	C534.117004,743.785767 547.826599,727.951721 561.884521,712.536499 
	C570.863770,702.690369 579.356079,692.400085 588.080811,682.292603 
	C585.815063,677.261719 581.456055,679.527832 577.570068,678.974487 
M697.979187,595.526489 
	C685.323425,606.450073 672.772888,617.481506 661.752441,630.810486 
	C664.361328,632.100403 666.997498,633.350220 669.096985,632.743286 
	C673.599548,631.441772 678.024963,629.537659 682.120178,627.236389 
	C689.514832,623.080994 696.726868,618.582031 703.865295,613.993347 
	C714.797058,606.966187 725.528381,599.586365 731.911865,587.775757 
	C733.137146,585.508911 733.997253,581.286560 732.798218,579.918030 
	C731.338684,578.252258 727.527283,578.616638 724.718994,578.198242 
	C724.331909,578.140503 723.886719,578.697754 723.428955,578.855835 
	C713.781616,582.187500 706.007690,588.406372 697.979187,595.526489 
M441.429138,790.101807 
	C438.016876,797.169922 438.766022,799.061951 446.558929,797.734985 
	C455.592560,796.196655 464.382263,792.925720 473.078705,789.844727 
	C476.927734,788.481018 480.404877,785.897827 483.760468,783.467285 
	C484.366638,783.028137 484.050537,779.663940 483.329224,779.300781 
	C476.559753,775.892578 469.174988,774.680298 461.934906,776.749023 
	C454.154144,778.972229 447.552277,783.649963 441.429138,790.101807 
z"/>
<path fill="#E10628" opacity="1.000000" stroke="none" 
	d="
M1517.295654,255.195251 
	C1505.294312,264.070160 1496.956177,275.233398 1491.946655,288.903931 
	C1487.568481,300.851288 1485.402222,313.211182 1485.005859,325.897888 
	C1484.638550,337.661041 1483.356689,349.496002 1484.192749,361.176575 
	C1486.262207,390.084656 1494.028931,417.162506 1515.764160,437.901825 
	C1522.001221,443.853088 1530.327637,447.628387 1537.746460,452.321564 
	C1541.144775,454.471344 1544.665405,456.427704 1548.130615,458.471741 
	C1548.003784,458.987061 1547.877075,459.502350 1547.750244,460.017670 
	C1543.687378,459.668579 1539.565430,459.643707 1535.571533,458.915924 
	C1515.103271,455.186096 1494.995483,450.192169 1476.537231,440.162842 
	C1449.495361,425.469513 1432.902100,402.929291 1427.043701,372.753906 
	C1422.859253,351.200195 1423.910156,329.922821 1431.887085,309.200623 
	C1436.936035,296.084564 1445.340210,285.585815 1456.469360,277.240112 
	C1474.645142,263.610077 1495.546631,256.457764 1517.550659,252.057159 
	C1518.248779,251.917572 1519.037598,252.231995 1520.669922,252.456711 
	C1519.189453,253.646835 1518.379150,254.298264 1517.295654,255.195251 
z"/>
<path fill="#E10628" opacity="1.000000" stroke="none" 
	d="
M1551.797607,63.802315 
	C1550.230103,65.641632 1548.825806,67.751289 1546.909180,68.444359 
	C1522.676025,77.207100 1509.871704,95.638451 1504.174805,119.602104 
	C1501.878052,129.262955 1501.019775,139.311661 1500.094238,149.238632 
	C1499.296509,157.792572 1498.477173,166.495956 1499.190430,175.005615 
	C1500.412720,189.588913 1499.482178,204.794220 1507.168823,218.093063 
	C1510.005005,223.000183 1514.181763,227.189087 1518.069702,231.408279 
	C1520.086914,233.597427 1522.807983,235.137924 1525.211060,236.971405 
	C1524.653809,237.709030 1524.096436,238.446640 1523.539185,239.184250 
	C1515.500366,236.453140 1507.378052,233.943176 1499.441162,230.942871 
	C1484.900146,225.446198 1471.420288,218.070206 1460.403931,206.862289 
	C1448.849487,195.106918 1443.004272,180.832428 1440.840454,164.504410 
	C1438.666626,148.102020 1441.710571,132.795334 1448.497070,118.163467 
	C1457.527588,98.693192 1473.672485,86.634293 1492.735718,78.143021 
	C1510.917358,70.044357 1530.333374,66.377541 1549.807861,63.051636 
	C1550.408081,62.949123 1551.082886,63.283577 1551.797607,63.802315 
z"/>
<path fill="#E10628" opacity="1.000000" stroke="none" 
	d="
M1650.328369,294.695312 
	C1671.463745,302.433777 1689.363525,313.976868 1700.625854,333.547211 
	C1705.848511,342.622437 1708.741333,352.763672 1709.056885,363.516937 
	C1709.476807,377.825439 1708.193237,391.673920 1702.155884,404.976959 
	C1695.343384,419.987885 1685.168701,431.792877 1671.175171,440.375000 
	C1653.447632,451.247223 1633.817871,456.568817 1613.544678,459.917938 
	C1609.868408,460.525269 1606.102783,460.591400 1600.701782,461.049622 
	C1603.218506,458.691742 1604.435791,456.809296 1606.148926,456.058044 
	C1629.893921,445.646027 1641.180420,425.770325 1646.837646,401.961578 
	C1651.179199,383.689667 1651.861206,364.960602 1650.828125,346.291534 
	C1650.287964,336.531128 1648.605469,326.741852 1646.459473,317.185516 
	C1643.715698,304.966644 1636.373657,295.638428 1625.764282,288.932556 
	C1625.245483,288.604645 1624.831299,288.111450 1624.368408,287.695251 
	C1624.527954,287.285339 1624.687378,286.875427 1624.846924,286.465515 
	C1633.227661,289.140991 1641.608398,291.816437 1650.328369,294.695312 
z"/>
<path fill="#E10628" opacity="1.000000" stroke="none" 
	d="
M1710.753662,215.744980 
	C1703.107056,225.507217 1693.467651,232.237717 1683.074463,237.960709 
	C1661.023682,250.103058 1636.752686,256.536774 1613.234497,264.898529 
	C1599.714966,269.705292 1585.819946,273.632965 1572.707397,279.360626 
	C1557.580811,285.967896 1542.702026,293.564178 1533.762329,310.437225 
	C1532.544678,307.061462 1531.365723,305.094818 1531.166870,303.033630 
	C1529.739380,288.226868 1532.326050,274.814148 1543.009155,263.304169 
	C1558.272949,246.859009 1578.198486,239.309952 1598.535889,232.141846 
	C1626.831177,222.168900 1655.117920,212.163986 1683.271973,201.802216 
	C1695.096069,197.450424 1706.070679,191.378845 1713.106567,180.271530 
	C1715.268311,176.858932 1716.685181,172.974503 1718.464722,169.261093 
	C1725.919312,178.818039 1721.921753,203.193161 1710.753662,215.744980 
z"/>
<path fill="#E10628" opacity="1.000000" stroke="none" 
	d="
M1651.325195,138.281006 
	C1646.130737,146.232773 1638.812256,149.382812 1629.954956,150.052719 
	C1621.040527,150.726898 1612.913574,148.991837 1605.860596,143.342102 
	C1595.346313,134.919601 1593.323608,120.867439 1598.655884,108.839874 
	C1600.769897,104.071877 1603.300903,99.489243 1605.626099,94.814301 
	C1610.213989,85.589867 1608.488647,79.713081 1600.014038,73.014938 
	C1597.079956,70.695900 1594.056641,68.489632 1591.001831,64.925072 
	C1592.630737,64.761536 1594.458252,64.031525 1595.858032,64.522034 
	C1610.046265,69.493660 1624.480713,74.076271 1636.821411,83.021812 
	C1647.718262,90.920799 1653.380493,102.135910 1656.058960,115.154236 
	C1657.778198,123.509773 1656.289307,131.015549 1651.325195,138.281006 
z"/>
<path fill="#E10628" opacity="1.000000" stroke="none" 
	d="
M811.765137,611.734131 
	C801.737488,621.430176 791.981018,630.894531 782.171021,640.303284 
	C778.692505,643.639465 772.833252,644.062012 769.629150,641.034241 
	C766.186218,637.780823 768.251404,634.382507 769.986511,631.186279 
	C770.601868,630.052795 771.493652,629.028503 772.412048,628.106689 
	C783.210571,617.267700 794.033081,606.452576 804.861267,595.643250 
	C807.916809,592.593079 813.511047,591.786743 816.488708,594.286316 
	C820.039917,597.267334 819.643311,600.852966 817.191833,604.380859 
	C815.520996,606.785522 813.744507,609.116638 811.765137,611.734131 
z"/>
<path fill="#000000" opacity="1.000000" stroke="none" 
	d="
M1598.000000,816.001770 
	C1592.503174,823.144775 1587.196533,830.026672 1581.611938,836.675293 
	C1579.628662,839.036560 1576.852661,840.712097 1574.639526,842.903564 
	C1564.827393,852.620789 1555.389893,862.739502 1545.237671,872.083435 
	C1535.126709,881.389465 1524.517456,890.270996 1510.806152,894.051697 
	C1508.632935,894.650940 1506.315674,894.817322 1504.050537,894.971436 
	C1500.499146,895.212952 1498.890137,893.393677 1498.991455,889.870605 
	C1499.204346,882.472717 1503.184082,876.612976 1507.941406,871.806763 
	C1518.811523,860.825012 1529.884521,849.942017 1541.780151,840.114319 
	C1549.249512,833.943420 1558.210938,829.490479 1566.771484,824.751465 
	C1576.941284,819.121582 1587.373413,813.960693 1597.764038,808.740051 
	C1599.111450,808.063049 1600.888916,808.241577 1602.467163,808.023804 
	C1601.903442,809.588318 1601.513184,811.248352 1600.720581,812.686768 
	C1600.098267,813.816162 1598.979004,814.671631 1598.000000,816.001770 
z"/>
<path fill="#000000" opacity="1.000000" stroke="none" 
	d="
M1628.169189,753.370422 
	C1620.663330,755.144104 1613.509155,757.559265 1606.103394,754.973633 
	C1603.345093,754.010620 1600.467896,753.038513 1598.085938,751.421021 
	C1593.042969,747.996643 1593.168823,740.195679 1598.400024,736.323547 
	C1607.830078,729.343262 1626.118408,725.401978 1637.297363,732.962158 
	C1639.912354,734.730713 1642.399292,738.521851 1642.561646,741.511780 
	C1642.694824,743.966797 1639.711548,747.140991 1637.339844,749.030273 
	C1634.870728,750.997070 1631.479126,751.805542 1628.169189,753.370422 
z"/>
<path fill="#000000" opacity="1.000000" stroke="none" 
	d="
M2397.245361,736.664917 
	C2400.300293,739.866943 2399.611572,743.057922 2396.650146,744.671082 
	C2383.770996,751.686035 2371.112061,759.543457 2355.770996,759.963684 
	C2350.732910,760.101807 2349.192139,757.575195 2350.984131,752.688416 
	C2353.922119,744.677307 2361.229492,741.823975 2368.152100,739.190918 
	C2377.342773,735.695251 2386.970947,733.697937 2397.245361,736.664917 
z"/>
<path fill="#000000" opacity="1.000000" stroke="none" 
	d="
M2652.863281,764.030212 
	C2648.564209,766.462341 2645.653320,763.827515 2643.417480,761.510803 
	C2641.293213,759.309875 2640.513428,755.752930 2642.624268,753.014221 
	C2651.276367,741.790466 2661.747559,733.500366 2676.886963,734.148315 
	C2678.695312,734.225647 2681.144043,735.970337 2681.944580,737.604248 
	C2682.562744,738.865906 2681.648438,741.889038 2680.412598,742.886780 
	C2671.498779,750.083313 2662.329102,756.962769 2652.863281,764.030212 
z"/>
<path fill="#000000" opacity="1.000000" stroke="none" 
	d="
M528.744629,313.673279 
	C551.509155,305.172424 574.856079,303.873779 599.015991,304.014130 
	C599.015991,320.576202 599.383362,336.733887 598.912354,352.867035 
	C598.444275,368.896240 590.661194,381.837524 579.073181,392.253571 
	C565.702393,404.272125 549.635620,410.083099 531.604492,408.875610 
	C520.297302,408.118347 509.753540,404.118805 501.250122,396.468597 
	C495.017975,390.861847 491.454956,383.099243 490.596680,374.880585 
	C489.473541,364.125946 488.742126,353.300873 493.501892,342.790375 
	C500.017853,328.401733 511.668671,320.443176 525.679626,314.978973 
	C526.594421,314.622162 527.507507,314.260864 528.744629,313.673279 
z"/>
<path fill="#000000" opacity="1.000000" stroke="none" 
	d="
M2805.104980,305.001343 
	C2813.598389,304.333496 2821.626221,303.383942 2829.678223,303.076294 
	C2838.445801,302.741333 2840.807617,304.305176 2840.805420,312.878632 
	C2840.801270,329.859375 2843.147461,347.088867 2837.939453,363.732666 
	C2834.663574,374.200104 2828.671875,382.969055 2820.386230,390.403778 
	C2811.864014,398.050537 2802.276611,403.421539 2791.317871,406.237305 
	C2771.171631,411.413818 2748.545166,406.929688 2737.189209,388.316559 
	C2733.762939,382.700378 2732.515381,375.565674 2731.124268,368.947021 
	C2729.528809,361.354553 2730.590088,353.709351 2733.026367,346.322479 
	C2737.091553,333.996490 2745.381348,325.292419 2756.429199,318.879761 
	C2769.723633,311.163239 2784.277588,307.755402 2799.344482,305.980927 
	C2801.126709,305.771027 2802.882324,305.334076 2805.104980,305.001343 
z"/>
<path fill="#000000" opacity="1.000000" stroke="none" 
	d="
M790.265808,731.235718 
	C785.370972,733.796387 780.762634,736.151062 776.078369,738.343811 
	C775.437744,738.643738 774.419556,738.136963 773.576172,738.003723 
	C773.730042,737.162720 773.597107,736.067322 774.082397,735.520142 
	C778.854492,730.139160 784.827942,726.808350 793.183044,724.760925 
	C792.008179,727.512512 791.268188,729.245483 790.265808,731.235718 
z"/>
<path fill="#000000" opacity="1.000000" stroke="none" 
	d="
M1196.584229,726.038940 
	C1196.536865,727.658936 1196.608765,730.032959 1195.572998,730.708374 
	C1190.977295,733.705444 1186.112427,736.310852 1181.213257,738.798584 
	C1180.479614,739.171082 1179.046509,738.166138 1177.099976,737.520996 
	C1182.993042,731.584778 1188.379517,726.838745 1196.584229,726.038940 
z"/>
<path fill="#000000" opacity="1.000000" stroke="none" 
	d="
M1475.190063,652.310608 
	C1469.524658,656.546265 1463.555054,658.570129 1456.436890,656.982605 
	C1463.403076,653.966370 1470.369385,650.950134 1477.335693,647.933899 
	C1477.586304,648.293884 1477.836914,648.653809 1478.087646,649.013794 
	C1477.205811,650.024414 1476.323975,651.035095 1475.190063,652.310608 
z"/>
<path fill="#000000" opacity="1.000000" stroke="none" 
	d="
M698.231201,595.269287 
	C706.007690,588.406372 713.781616,582.187500 723.428955,578.855835 
	C723.886719,578.697754 724.331909,578.140503 724.718994,578.198242 
	C727.527283,578.616638 731.338684,578.252258 732.798218,579.918030 
	C733.997253,581.286560 733.137146,585.508911 731.911865,587.775757 
	C725.528381,599.586365 714.797058,606.966187 703.865295,613.993347 
	C696.726868,618.582031 689.514832,623.080994 682.120178,627.236389 
	C678.024963,629.537659 673.599548,631.441772 669.096985,632.743286 
	C666.997498,633.350220 664.361328,632.100403 661.752441,630.810486 
	C672.772888,617.481506 685.323425,606.450073 698.231201,595.269287 
z"/>
<path fill="#000000" opacity="1.000000" stroke="none" 
	d="
M441.687927,789.840393 
	C447.552277,783.649963 454.154144,778.972229 461.934906,776.749023 
	C469.174988,774.680298 476.559753,775.892578 483.329224,779.300781 
	C484.050537,779.663940 484.366638,783.028137 483.760468,783.467285 
	C480.404877,785.897827 476.927734,788.481018 473.078705,789.844727 
	C464.382263,792.925720 455.592560,796.196655 446.558929,797.734985 
	C438.766022,799.061951 438.016876,797.169922 441.687927,789.840393 
z"/>
</svg>