<svg version="1.1" id="Layer_1" xmlns="http://www.w3.org/2000/svg" xmlns:xlink="http://www.w3.org/1999/xlink" x="0px" y="0px"
	 width="100%" viewBox="20 25 1700 635" enable-background="new 0 0 1826 672" xml:space="preserve">
<path fill="#FFFFFF" opacity="1.000000" stroke="none" 
	d="
M1266.000000,673.000000 
	C844.000000,673.000000 422.500000,673.000000 1.000000,673.000000 
	C1.000000,449.000000 1.000000,225.000000 1.000000,1.000000 
	C609.666687,1.000000 1218.333374,1.000000 1827.000000,1.000000 
	C1827.000000,225.000000 1827.000000,449.000000 1827.000000,673.000000 
	C1640.166626,673.000000 1453.333374,673.000000 1266.000000,673.000000 
M695.041443,360.546814 
	C694.294739,361.595978 693.719666,362.843140 692.773987,363.662689 
	C685.709656,369.785156 678.514832,375.757965 671.486084,381.920349 
	C668.791321,384.282898 666.690125,387.369598 663.857666,389.519165 
	C654.166870,396.873444 644.235901,403.910339 634.477661,411.177307 
	C631.849426,413.134521 628.968079,415.101746 627.145325,417.720337 
	C622.957642,423.736481 616.602417,426.063446 610.216248,427.623352 
	C607.999451,428.164825 603.012878,425.314301 602.503601,423.228638 
	C601.473022,419.008392 600.919006,414.177185 604.098206,409.811920 
	C605.397949,408.027252 604.885681,404.856506 604.999634,402.307495 
	C605.044922,401.295685 603.990845,399.826935 604.394226,399.303284 
	C607.696899,395.015259 605.402954,392.421387 602.345215,390.361755 
	C600.764832,391.657288 599.371094,392.885254 597.890808,393.998047 
	C592.292664,398.206329 586.471680,402.144073 581.104675,406.626740 
	C575.590088,411.232635 570.955994,416.990601 565.131409,421.104370 
	C556.624329,427.112701 548.407104,433.344055 540.985718,440.657532 
	C539.514526,442.107300 537.254211,442.718964 535.579651,444.005798 
	C526.448853,451.022400 517.535400,458.334106 508.204620,465.069855 
	C505.678619,466.893372 502.008423,467.304962 498.779388,467.931305 
	C495.760437,468.516907 493.314636,469.432404 489.909760,466.331085 
	C484.064362,461.006866 480.297058,453.101746 482.693146,445.657196 
	C483.939789,441.783997 482.476501,436.728943 487.739594,434.712799 
	C487.841034,434.673920 487.863770,434.415710 487.913086,434.256683 
	C489.546906,428.987488 491.179443,423.717896 493.103058,417.509705 
	C489.972992,416.056091 486.434052,415.036682 483.655151,412.986908 
	C478.518585,409.197937 477.105835,410.185608 472.949615,413.684418 
	C470.338989,415.882111 468.460602,418.927185 466.048950,421.391754 
	C464.454285,423.021393 462.394409,424.186920 460.724426,425.753815 
	C458.016754,428.294281 455.622894,431.187897 452.798950,433.581329 
	C448.344147,437.357056 443.631104,440.827209 439.063385,444.471893 
	C438.597107,444.843933 437.990051,445.627441 438.101776,446.045288 
	C439.235779,450.285248 435.399506,449.728210 433.457672,451.005859 
	C431.629974,452.208466 429.727020,453.341980 428.083374,454.766846 
	C426.256226,456.350800 424.776642,458.332733 422.969452,459.943634 
	C421.804321,460.982208 420.090881,461.440887 419.020691,462.544830 
	C413.671844,468.062073 408.385193,473.643585 403.207001,479.321350 
	C395.337769,487.949677 384.328613,493.148682 377.515656,502.925598 
	C377.174072,503.415802 376.446075,503.623230 375.935181,504.011292 
	C373.280762,506.027435 369.668732,507.520355 368.183014,510.192352 
	C364.486511,516.840332 356.979065,518.029236 351.928955,522.761047 
	C347.227203,527.166443 340.983856,530.002563 335.232361,533.192810 
	C327.717346,537.361267 320.073303,541.308289 312.381500,545.143433 
	C306.167236,548.241821 299.557037,546.231689 293.298004,545.433655 
	C290.664917,545.097900 287.167603,541.766785 286.360626,539.101624 
	C285.046906,534.763062 284.704468,529.668823 285.599487,525.225281 
	C287.155182,517.501404 289.967010,510.030487 292.115326,502.907257 
	C290.265839,501.803131 288.713165,501.344269 287.907257,500.305878 
	C285.643951,497.389404 283.394836,497.659454 280.799225,499.682617 
	C274.201935,504.824921 267.569611,509.820038 262.017517,516.264343 
	C257.243317,521.805725 251.347336,526.369812 246.063766,531.486206 
	C240.733398,536.647949 235.572006,541.983704 230.289612,547.195618 
	C224.161652,553.241760 218.268982,559.395264 211.250610,564.649719 
	C201.742264,571.768433 193.539230,580.622009 184.694519,588.641174 
	C182.168091,590.931763 179.502640,593.132446 176.647125,594.982666 
	C171.682144,598.199646 166.353470,600.872559 161.502975,604.242371 
	C158.642853,606.229431 156.600494,609.355957 153.860580,611.560120 
	C142.910385,620.369141 131.833664,629.020996 120.792252,637.716431 
	C120.168663,638.207581 119.465149,638.611633 118.760170,638.982849 
	C113.001472,642.014404 107.273003,645.106934 101.458664,648.028320 
	C94.051796,651.749878 86.826248,656.066345 79.045410,658.735291 
	C72.837189,660.864868 65.914558,660.911682 59.309040,661.882935 
	C59.355103,662.187073 59.401165,662.491272 59.447227,662.795410 
	C646.170044,662.795410 1232.892822,662.795410 1819.650391,662.795410 
	C1819.650391,452.444336 1819.650391,242.297974 1819.650391,33.557102 
	C1816.343384,33.141476 1813.657104,32.752686 1810.959106,32.480579 
	C1808.706543,32.253395 1806.433594,31.974039 1804.181152,32.050617 
	C1799.301392,32.216522 1794.313354,33.394669 1789.578857,32.710655 
	C1781.321167,31.517633 1773.229858,29.132610 1764.877686,31.950663 
	C1764.280640,32.152042 1763.549072,32.022884 1762.888916,31.957628 
	C1756.396484,31.315989 1749.918213,30.327030 1743.411621,30.080854 
	C1734.754028,29.753292 1726.074097,30.062033 1717.405396,29.957386 
	C1715.173828,29.930447 1712.915649,28.975000 1710.727539,29.153973 
	C1706.395508,29.508295 1702.118774,30.498062 1697.790771,30.956043 
	C1694.212646,31.334682 1690.585205,31.223625 1686.994507,31.513918 
	C1681.988403,31.918646 1676.997314,32.893932 1671.997925,32.905834 
	C1664.267822,32.924236 1656.306152,31.059128 1648.876587,32.398876 
	C1642.731445,33.507030 1637.235107,33.847752 1631.402588,32.055256 
	C1630.185547,31.681227 1628.500610,31.535021 1627.460815,32.089371 
	C1620.718628,35.683952 1613.588745,34.007847 1606.552856,34.059296 
	C1600.798828,34.101368 1595.052490,34.835529 1589.296143,34.958733 
	C1581.495361,35.125694 1573.685547,34.872971 1565.884766,35.040127 
	C1558.308838,35.202465 1550.725220,35.479923 1543.169800,36.040985 
	C1529.468018,37.058475 1515.805786,34.768738 1501.993530,36.720428 
	C1490.098877,38.401176 1477.860718,37.602421 1465.779053,38.032215 
	C1461.072754,38.199642 1456.085449,37.846024 1451.744995,39.289600 
	C1444.251709,41.781815 1435.359863,39.449669 1429.252319,46.375740 
	C1429.252319,51.315044 1429.629150,56.832539 1429.099243,62.261528 
	C1428.818604,65.136826 1427.756226,68.920280 1425.683472,70.470337 
	C1415.219727,78.294960 1404.360229,85.602989 1392.476807,91.214737 
	C1391.766724,91.550018 1391.296021,92.359024 1390.641846,92.851761 
	C1386.719360,95.806046 1382.911133,98.942177 1378.794434,101.598633 
	C1375.736084,103.572281 1372.268066,104.911270 1368.982910,106.533569 
	C1367.994995,107.021355 1367.010742,107.516563 1366.020264,107.999100 
	C1360.480835,110.698235 1354.900024,113.316505 1349.411987,116.116287 
	C1345.000488,118.366859 1340.814331,121.083420 1336.322266,123.144852 
	C1330.862427,125.650406 1325.220947,127.776428 1319.595703,129.901520 
	C1312.226318,132.685516 1304.796265,135.309097 1297.389282,137.993576 
	C1297.241943,138.047012 1297.034424,137.947235 1296.895264,138.009277 
	C1292.395630,140.017563 1287.915771,142.071106 1283.397827,144.037354 
	C1281.663696,144.792099 1279.850220,145.367020 1278.062866,145.995712 
	C1276.141235,146.671646 1274.248779,147.504776 1272.270752,147.930252 
	C1268.723267,148.693359 1265.130005,149.262115 1261.537598,149.786774 
	C1260.230957,149.977585 1258.863037,149.708084 1257.538696,149.824646 
	C1252.651855,150.254776 1247.891968,154.497467 1242.764648,150.146973 
	C1242.286377,149.741196 1239.961792,150.759872 1239.116699,151.685303 
	C1236.963745,154.043182 1235.499390,157.093781 1233.164429,159.210968 
	C1221.703247,169.602890 1210.166382,179.919113 1198.403931,189.966812 
	C1193.651001,194.026840 1188.219482,197.285919 1183.170166,201.009171 
	C1181.162964,202.489227 1179.526733,204.542969 1177.391113,205.751450 
	C1176.134644,206.462448 1173.610107,206.715866 1172.756592,205.949402 
	C1171.376831,204.710434 1169.986206,202.323242 1170.235718,200.667358 
	C1170.786621,197.009583 1172.369873,193.509521 1173.486572,189.930969 
	C1173.587402,189.607666 1173.493408,189.045441 1173.265991,188.824509 
	C1169.951660,185.604492 1173.585449,184.303268 1175.052124,182.486374 
	C1176.011597,181.297745 1177.212769,180.302673 1178.317871,179.233459 
	C1180.238281,177.375275 1182.167969,175.526871 1184.936646,172.863724 
	C1184.784058,172.463409 1183.307251,170.554092 1183.605957,168.982224 
	C1184.330933,165.167084 1180.871704,164.586777 1179.420410,164.455460 
	C1177.897461,164.317703 1175.921143,166.523911 1174.543335,168.063828 
	C1172.383789,170.477371 1170.785522,173.408142 1168.548462,175.733948 
	C1163.835815,180.633484 1159.024780,185.465836 1153.936035,189.966003 
	C1150.887085,192.662292 1147.220215,194.655182 1143.862915,197.009491 
	C1141.852661,198.419113 1139.870361,199.873032 1137.934448,201.382767 
	C1133.942505,204.496170 1132.320801,209.934158 1126.468506,211.539459 
	C1123.919922,212.238541 1119.946289,215.503860 1123.415649,220.009369 
	C1123.894409,220.631027 1124.068359,222.255096 1123.645264,222.679825 
	C1120.741089,225.595245 1117.628052,228.301590 1114.605835,231.100662 
	C1110.728027,234.692184 1106.411865,237.935867 1103.124878,242.007736 
	C1099.118286,246.971146 1096.254272,252.844574 1092.382324,257.933380 
	C1089.630493,261.549805 1084.388184,262.158630 1081.553101,260.018188 
	C1078.340454,257.592773 1076.211548,250.076843 1078.516968,247.164124 
	C1082.267212,242.425980 1084.817261,237.019653 1088.015381,232.068741 
	C1090.684082,227.937576 1089.055298,226.915131 1086.556030,225.111389 
	C1083.119263,222.631104 1078.576538,220.654358 1075.210938,222.854507 
	C1069.179443,226.797546 1064.185669,232.293365 1058.551025,236.885986 
	C1049.778442,244.036041 1040.815186,250.951401 1031.967651,258.010162 
	C1027.240234,261.781830 1022.607056,265.671234 1017.893494,269.460541 
	C1013.183350,273.247253 1008.571289,277.179932 1003.650208,280.673950 
	C998.284851,284.483246 992.596985,287.836029 987.083435,291.439545 
	C984.352173,293.224670 981.918091,295.682587 978.960815,296.858521 
	C972.841064,299.291901 966.489014,300.880951 959.739624,299.054108 
	C956.721741,298.237244 950.978210,293.760773 951.056641,291.688110 
	C951.367859,283.464630 955.830688,279.969177 963.709412,282.440491 
	C967.322693,283.573914 969.035950,282.459595 970.136475,279.419220 
	C972.475586,272.957031 975.057861,266.545105 976.754456,259.911560 
	C977.251221,257.969269 975.098511,255.349319 974.160095,253.039993 
	C972.471985,253.822830 970.717773,254.491898 969.115784,255.422943 
	C967.730774,256.227997 966.500427,257.307434 965.233643,258.305969 
	C960.367493,262.141418 955.126038,265.601654 950.753540,269.937073 
	C945.183960,275.459290 940.060974,281.362976 933.187683,285.425903 
	C930.828674,286.820343 928.918945,288.964722 926.767090,290.721405 
	C919.368835,296.761292 911.935425,302.758453 904.556274,308.821625 
	C902.107178,310.833984 900.095764,313.644928 897.345032,314.978668 
	C884.781067,321.070099 873.643188,329.680420 859.706848,333.537048 
	C850.094116,336.197205 841.597229,340.409943 831.779053,334.522583 
	C827.203491,331.778931 823.327515,329.012939 822.021240,323.679138 
	C821.182434,320.254089 820.619019,316.727844 816.353394,317.000000 
	C814.493774,318.578979 812.436584,319.601654 811.505066,321.257507 
	C809.068542,325.588562 804.253723,326.146210 800.775757,328.749359 
	C792.498657,334.944458 784.395508,341.378723 775.996887,347.402313 
	C770.956421,351.017395 764.598572,353.195312 760.462097,357.562347 
	C756.049561,362.220795 750.242920,362.212585 745.367920,364.882324 
	C743.718750,365.785461 741.635681,365.989624 740.135925,367.055176 
	C735.199402,370.562286 724.533936,370.698547 719.199036,367.858643 
	C712.155884,364.109436 709.825012,358.533142 711.009277,350.999084 
	C711.137878,350.180786 710.984192,349.318115 710.961426,348.476044 
	C710.105530,348.622894 709.059021,348.503937 708.424194,348.959106 
	C703.814697,352.264191 697.986572,354.172272 695.041443,360.546814 
M1605.264038,19.999996 
	C1640.692017,19.405170 1676.119873,18.810343 1711.547852,18.215517 
	C1711.540649,17.877642 1711.533325,17.539768 1711.526123,17.201893 
	C1145.480591,17.201893 579.435181,17.201893 13.603734,17.201893 
	C13.603734,205.244125 13.603734,393.083923 13.603734,580.923706 
	C16.211544,574.103943 17.885540,567.166565 20.300896,560.497681 
	C22.558081,554.265503 24.972189,547.930115 28.427746,542.324707 
	C36.168671,529.767822 39.521164,514.855774 49.726582,503.617767 
	C53.380882,499.593719 56.229038,494.812439 59.260487,490.253967 
	C63.575287,483.765717 69.361824,478.522217 74.061043,472.280853 
	C81.820122,461.975494 91.803200,453.366852 100.585739,443.801422 
	C105.774399,438.150269 109.930428,431.472046 115.494080,426.263184 
	C123.241043,419.010223 131.906250,412.742950 140.100159,405.959229 
	C142.296005,404.141235 144.085999,401.835022 146.270844,400.001373 
	C154.410645,393.169983 162.594055,386.388794 170.845276,379.692505 
	C177.055862,374.652283 183.329926,369.683746 189.727524,364.885651 
	C191.147354,363.820831 193.187393,363.548401 194.971802,363.010376 
	C201.380493,361.077911 208.125336,359.887177 214.137665,357.106812 
	C221.823044,353.552734 228.907196,348.867126 237.865662,348.932831 
	C243.244476,348.972321 248.639435,348.002869 254.005524,348.172150 
	C257.642914,348.286957 262.320526,348.418304 264.668304,350.573486 
	C273.681000,358.846863 284.515350,365.700684 285.406097,380.337799 
	C285.962250,389.477051 285.256256,398.298981 282.475616,406.597015 
	C279.834869,414.477631 275.255646,421.799774 270.914246,428.996735 
	C265.291962,438.317108 259.560333,447.650574 252.978500,456.295227 
	C242.100296,470.582733 230.550858,484.361694 219.190201,498.278168 
	C214.052032,504.572174 207.077042,509.111908 202.882584,516.428467 
	C198.625381,523.854492 193.395432,530.721436 188.623535,537.854614 
	C187.475952,539.570068 186.708267,541.606628 185.327362,543.086182 
	C181.543900,547.139832 177.262527,550.751160 173.684418,554.967224 
	C170.710480,558.471375 167.324631,559.873413 163.139465,558.530334 
	C160.686737,557.743286 159.604385,551.250427 161.003174,547.756470 
	C161.946472,545.400208 162.686020,542.869995 164.091461,540.809692 
	C167.358948,536.020142 170.819839,531.575317 177.450058,530.753906 
	C179.404022,530.511841 182.400040,527.491638 182.505432,525.609558 
	C182.825211,519.898987 187.425125,517.039368 189.889297,512.883606 
	C192.974640,507.680176 197.384369,503.268860 201.159561,498.466217 
	C207.267014,490.696564 213.326981,482.889618 219.400131,475.093079 
	C228.720016,463.128326 238.165146,451.257812 247.294067,439.148987 
	C251.721970,433.275726 255.512283,426.924744 259.664734,420.840149 
	C264.193268,414.204498 267.719543,407.097656 269.983521,399.386505 
	C270.739471,396.811676 271.503174,394.218933 271.966187,391.582184 
	C273.096802,385.143341 270.797455,379.295532 267.876221,373.875000 
	C266.250427,370.858307 263.262756,368.570251 260.864044,365.976776 
	C257.846710,362.714417 253.803726,362.984406 249.921906,363.009369 
	C246.552887,363.031036 243.173523,363.284363 239.822708,363.653137 
	C237.597794,363.898010 235.429260,364.813202 233.210541,364.922638 
	C228.804672,365.139954 224.061371,363.989807 220.039307,365.254700 
	C213.730118,367.238800 207.687271,370.385254 201.936554,373.734650 
	C196.902390,376.666687 192.415604,380.542328 187.705475,384.026062 
	C180.928955,389.038116 174.026138,393.893829 167.446075,399.152679 
	C161.884903,403.597198 156.715973,408.531403 151.354980,413.227814 
	C145.982819,417.933929 140.370392,422.390564 135.259384,427.363647 
	C129.254181,433.206787 123.694580,439.506470 117.907104,445.575134 
	C110.880157,452.943573 103.790520,460.252380 96.778000,467.634460 
	C91.339172,473.359924 85.768051,478.980011 80.648399,484.981903 
	C76.688179,489.624542 73.206505,494.697205 69.752792,499.743469 
	C66.774002,504.095825 64.367317,508.847839 61.291695,513.123962 
	C56.509487,519.772827 51.157246,526.040283 49.271626,534.317505 
	C48.917812,535.870667 48.686111,537.521667 47.976048,538.911987 
	C44.132530,546.437622 39.362015,553.598938 36.430267,561.452942 
	C32.898609,570.914062 26.251507,579.969055 29.979376,591.106018 
	C30.129635,591.554932 30.156921,592.173096 29.968512,592.588562 
	C25.802729,601.774902 33.855862,609.748901 32.559525,618.804138 
	C32.099525,622.017334 33.518349,625.906616 35.139744,628.916016 
	C37.620609,633.520447 40.174274,639.636658 44.276184,641.366272 
	C48.127640,642.990417 52.546837,644.228149 56.643459,645.971252 
	C58.241131,646.651123 60.402565,646.787903 62.088558,646.343079 
	C69.474922,644.394775 76.703018,641.804932 84.136047,640.085449 
	C93.707863,637.871155 101.573929,632.874756 109.067810,626.828857 
	C114.473938,622.467346 120.050964,618.209351 126.006668,614.670898 
	C130.894867,611.766785 136.456085,609.997131 141.710388,607.704956 
	C142.317947,607.439880 142.870636,607.049072 143.422424,606.731689 
	C142.328674,604.992188 141.595276,603.825806 140.647720,602.318848 
	C146.566132,598.097778 152.096634,593.832703 157.955109,590.079407 
	C162.425232,587.215515 167.673370,585.492432 171.916840,582.367554 
	C176.825806,578.752563 180.945496,574.081482 185.531540,570.008240 
	C190.845398,565.288635 196.378510,560.909302 201.224182,555.570251 
	C207.084702,549.113037 214.026993,543.615051 220.665024,537.892029 
	C228.250183,531.352417 236.795212,525.773804 241.320877,516.305786 
	C241.577301,515.769348 242.294785,515.456787 242.788971,515.029968 
	C244.404404,513.634338 246.046432,512.267334 247.617798,510.823547 
	C248.628586,509.894714 249.445587,508.743408 250.501877,507.877838 
	C253.616302,505.325714 256.893280,502.966705 259.939941,500.338837 
	C262.392426,498.223480 264.609558,495.834259 266.915466,493.550659 
	C267.635986,492.837067 268.360352,492.115204 268.986298,491.320984 
	C270.103302,489.903564 270.990051,488.272797 272.248199,487.004059 
	C277.691559,481.514984 283.315002,476.203369 288.718628,470.676300 
	C294.176971,465.093323 299.526581,459.399231 304.785339,453.627594 
	C308.696381,449.335205 312.207947,444.670685 316.217804,440.478363 
	C321.926788,434.509521 327.835480,428.722321 333.834534,423.043060 
	C339.141479,418.019073 344.924347,413.480713 350.042328,408.280426 
	C353.154938,405.117737 355.374451,401.083099 358.085815,397.508911 
	C358.388977,397.109253 359.324036,397.244934 359.897675,396.982635 
	C361.035492,396.462402 362.369019,396.073242 363.196259,395.218262 
	C368.860809,389.363770 374.352020,383.341400 380.023102,377.493347 
	C385.323944,372.027130 390.777679,366.709229 396.164337,361.326233 
	C403.615601,353.880066 411.260956,346.616272 418.470245,338.942810 
	C427.916779,328.888092 436.863953,318.363281 446.343842,308.341400 
	C450.284119,304.175842 455.322693,301.060883 459.361755,296.973969 
	C464.220856,292.057312 468.585144,286.646667 473.091766,281.388336 
	C476.300323,277.644562 479.206451,273.625214 482.588531,270.051544 
	C485.554962,266.917053 489.083527,264.322937 492.205353,261.325134 
	C496.197449,257.491547 499.967834,253.427490 503.948700,249.581726 
	C508.511230,245.174088 513.336792,241.032776 517.801636,236.531281 
	C524.618225,229.658737 531.125793,222.479431 537.953125,215.617981 
	C542.395996,211.152863 549.199646,208.920715 550.805786,201.781906 
	C550.929749,201.231033 551.678467,200.807648 552.163147,200.353073 
	C557.344666,195.493118 562.806030,190.894867 567.640442,185.711639 
	C572.564331,180.432510 578.958496,176.545258 582.210205,169.572723 
	C583.340759,167.148651 586.244080,165.066513 588.823059,163.972244 
	C590.557983,163.236130 593.594543,163.881104 595.228638,165.052399 
	C596.979736,166.307571 599.127747,169.278198 598.697876,170.836929 
	C597.788452,174.134644 595.777893,177.438797 593.395264,179.962692 
	C585.849487,187.955872 577.727661,195.406372 570.207397,203.422150 
	C563.909668,210.134796 558.444275,217.636917 552.051636,224.249313 
	C546.439392,230.054535 539.912720,234.963409 534.038635,240.530563 
	C524.928772,249.164505 515.937439,257.928741 507.067047,266.808716 
	C497.271851,276.614502 487.107422,286.135315 478.153534,296.672241 
	C470.376099,305.824646 461.638763,313.885193 453.228577,322.343170 
	C444.518616,331.102600 435.993896,340.054749 427.614136,349.131256 
	C420.560608,356.771271 413.892761,364.765808 406.938446,372.499329 
	C401.827972,378.182404 396.361298,383.551361 391.371887,389.335083 
	C387.651367,393.647919 384.444977,398.403687 381.000519,402.955322 
	C378.319366,406.498230 375.615662,410.024109 372.937042,413.568939 
	C366.758209,421.745728 360.435730,429.819580 354.455292,438.139191 
	C347.558716,447.733276 341.043518,457.600708 334.209869,467.241058 
	C330.991760,471.780884 326.639923,475.681152 324.207611,480.570557 
	C321.433136,486.147797 318.514557,491.361755 313.941711,495.599335 
	C312.974701,496.495453 311.759735,497.334412 311.238281,498.466522 
	C308.043121,505.403534 304.941864,512.386597 301.973816,519.423706 
	C301.052795,521.607361 300.516052,523.980469 300.032257,526.314209 
	C299.393707,529.394653 301.090729,531.457642 303.932770,530.873169 
	C310.155212,529.593323 316.270844,527.740112 322.352509,525.868774 
	C323.823944,525.415955 324.909332,523.832886 326.322845,523.037109 
	C328.240112,521.957642 330.613220,521.505005 332.243011,520.132874 
	C336.711273,516.370972 340.819702,512.184937 345.221161,508.339111 
	C347.267212,506.551361 349.655884,505.153961 351.900818,503.596283 
	C353.638031,502.390869 355.276733,500.464203 357.163788,500.169922 
	C361.631409,499.473145 362.963959,496.061798 365.072174,492.992065 
	C366.636993,490.713501 368.966705,488.950775 371.011078,487.016846 
	C371.616943,486.443726 372.486481,486.152771 373.106110,485.590302 
	C376.900848,482.145630 380.595734,478.588867 384.441986,475.203613 
	C391.569672,468.930267 400.094208,463.727539 405.627258,456.286987 
	C412.873444,446.542603 424.156982,441.725067 431.351105,432.306427 
	C431.805603,431.711456 432.996887,431.676239 433.847870,431.387695 
	C435.490082,430.830872 437.281189,430.527222 438.739838,429.662140 
	C440.539612,428.594727 442.361176,427.300476 443.652954,425.687531 
	C448.288269,419.899811 457.430115,418.141663 458.476501,409.096954 
	C458.562805,408.350861 459.802551,407.655823 460.613434,407.090759 
	C463.495850,405.082062 466.617493,403.368103 469.285156,401.112671 
	C472.356628,398.515747 474.986847,395.404297 477.908203,392.620758 
	C482.667877,388.085632 487.346436,383.444336 492.355072,379.196716 
	C498.832764,373.703278 505.947479,368.926636 512.165405,363.169098 
	C522.102417,353.967712 533.152893,345.924011 541.587891,335.102448 
	C543.091492,333.173462 546.121887,332.511841 547.971558,330.762085 
	C556.320984,322.863617 564.507446,314.792633 572.735413,306.766113 
	C575.981873,303.599091 579.135254,300.335480 582.419128,297.208282 
	C585.783875,294.003998 589.515930,291.147858 592.621704,287.717865 
	C597.481628,282.350616 601.822021,276.515991 606.613770,271.083252 
	C613.931702,262.786346 621.434143,254.651825 628.883667,246.471512 
	C632.377808,242.634628 636.824951,239.334518 639.213501,234.912491 
	C641.748108,230.220062 646.946106,228.781601 649.415405,223.819641 
	C651.848083,218.931229 657.160034,215.495361 661.131531,211.348312 
	C666.988586,205.232330 672.985474,199.231766 678.536255,192.846069 
	C683.979797,186.583786 688.846924,179.824234 694.146606,173.431763 
	C697.427612,169.474197 701.109009,165.851410 704.491394,161.974243 
	C708.031006,157.916840 711.208679,153.522369 714.947266,149.665680 
	C718.874573,145.614273 722.064575,146.437607 724.766724,151.270737 
	C727.282349,155.770264 725.522278,159.114166 722.839783,162.774261 
	C718.977051,168.044662 715.700867,173.740997 711.945068,179.094696 
	C706.989136,186.158920 702.182739,193.383453 696.606201,199.938599 
	C692.453247,204.820419 686.863403,208.454727 682.478027,213.169708 
	C675.452271,220.723618 668.948364,228.760406 662.116394,236.498123 
	C658.433289,240.669434 654.384521,244.520981 650.757202,248.737473 
	C646.192993,254.043076 642.385864,260.093994 637.356201,264.882355 
	C630.394348,271.510193 623.240906,277.950317 615.305054,283.596527 
	C609.390747,287.804443 604.952271,294.090820 599.873169,299.467255 
	C592.768738,306.987549 585.620300,314.467468 578.604004,322.069275 
	C573.459717,327.642914 568.348938,333.260773 563.495422,339.085754 
	C558.499451,345.081696 553.700684,351.254883 549.074768,357.541168 
	C546.443726,361.116577 544.456055,365.158020 541.961975,368.842957 
	C535.096497,378.986633 531.248291,391.146423 521.348755,399.300995 
	C519.451904,400.863495 518.350952,403.464905 517.080383,405.699341 
	C514.724548,409.842651 512.421936,414.021851 510.265594,418.271576 
	C507.041534,424.625519 501.644836,430.030457 502.790649,438.268250 
	C503.161194,440.932373 501.074707,443.938293 499.893433,447.435272 
	C500.223694,447.732056 501.315613,448.713348 502.521790,449.797333 
	C503.879211,449.149963 505.433533,448.690918 506.651764,447.781586 
	C514.059937,442.251862 521.416809,436.652405 528.741516,431.012115 
	C535.778931,425.593048 542.894348,420.261810 549.717285,414.581726 
	C555.258728,409.968506 559.940613,404.193634 565.849487,400.178741 
	C576.803406,392.735870 585.517212,382.802856 595.853821,374.743500 
	C600.135986,371.404816 602.887634,364.998688 610.161926,366.892792 
	C610.641968,367.017792 611.463745,366.002258 612.067932,365.452667 
	C619.525879,358.668945 627.346497,352.230438 634.297302,344.960632 
	C639.299683,339.728668 642.442139,333.307159 649.492004,329.343079 
	C655.475159,325.978821 659.178162,318.690063 664.192322,313.425720 
	C667.537720,309.913391 671.601746,307.091583 675.008484,303.630310 
	C680.411072,298.141174 685.597717,292.434143 690.758606,286.713593 
	C699.011414,277.565887 707.171265,268.334320 715.353882,259.123505 
	C715.662170,258.776550 715.718079,258.205597 716.026001,257.858154 
	C722.351685,250.719681 728.645203,243.551620 735.059998,236.493790 
	C738.243774,232.990738 741.752014,229.782944 744.943848,226.286743 
	C749.278992,221.538055 753.345764,216.542542 757.723938,211.835526 
	C762.002808,207.235153 766.678711,203.001511 770.912720,198.362534 
	C778.513977,190.034088 785.947693,181.551498 793.380066,173.070770 
	C795.713318,170.408417 797.858765,167.577057 800.017639,164.767334 
	C803.588928,160.119278 806.962830,155.312164 810.681091,150.786713 
	C813.809692,146.978851 817.562561,143.673584 820.590332,139.795502 
	C825.965027,132.911438 827.467773,132.444275 834.836060,136.726318 
	C835.521362,142.350006 835.385803,147.673157 830.163696,151.413818 
	C829.584717,151.828506 829.418091,152.790131 828.996826,153.458069 
	C826.102234,158.047943 823.102173,162.573898 820.306824,167.223053 
	C816.664307,173.281281 812.383789,178.598877 806.765320,183.113861 
	C803.711365,185.567993 802.975830,191.806107 799.857178,193.090958 
	C793.624207,195.658875 794.130920,202.627945 788.958862,205.952911 
	C783.640381,209.371994 779.949097,215.317398 775.531555,220.144348 
	C772.624573,223.320724 769.612183,226.404388 766.790405,229.654099 
	C762.473755,234.625381 758.397888,239.809738 753.988953,244.695328 
	C751.567749,247.378311 748.398010,249.398163 746.051453,252.133636 
	C741.473999,257.469574 737.525940,263.362946 732.778015,268.530090 
	C728.181885,273.531952 722.943787,277.950043 717.923645,282.554810 
	C710.670105,289.208191 703.202454,295.636597 696.123352,302.469025 
	C690.750977,307.654266 685.689392,313.186127 680.769226,318.808502 
	C675.686096,324.617096 670.866394,330.662323 666.069153,336.713226 
	C661.460815,342.525848 657.028931,348.478241 651.819153,355.284058 
	C654.579407,356.162598 657.529724,358.014496 660.339966,357.822052 
	C668.238953,357.281097 676.362732,357.100769 682.269287,350.080292 
	C684.692810,347.199738 688.493835,345.523132 691.413940,343.004120 
	C695.099548,339.824829 698.405579,336.205200 702.095276,333.031219 
	C706.115906,329.572571 710.388550,326.406769 714.365417,323.260345 
	C719.272522,326.921295 719.952393,321.781128 721.996704,319.812805 
	C723.804321,318.072418 725.300415,315.980560 727.221802,314.391998 
	C731.318542,311.005066 736.328369,308.450867 739.658630,304.464844 
	C746.756592,295.969452 752.991516,286.755676 759.645752,277.885590 
	C762.171570,274.518799 764.900696,271.305420 767.496887,267.990601 
	C772.208374,261.974823 776.952026,255.982605 781.559631,249.887817 
	C784.239990,246.342361 786.457275,242.430862 789.282532,239.014618 
	C793.704895,233.667252 798.500549,228.630310 803.074951,223.406586 
	C809.695435,215.846207 816.324158,208.291351 822.829712,200.632523 
	C829.403137,192.893768 835.825745,185.027039 842.323853,177.224213 
	C845.659424,173.218933 848.270203,167.403122 852.536987,165.663010 
	C858.948608,163.048141 862.420044,157.858795 866.860229,153.677307 
	C873.927368,147.021912 879.733826,139.049072 886.536438,132.085754 
	C893.971497,124.475052 901.860046,117.343964 908.049072,108.563927 
	C910.508667,105.074715 914.748535,104.446503 918.607849,105.382027 
	C922.812134,106.401184 922.154053,110.345993 921.916138,113.513725 
	C921.792847,115.154503 920.876099,116.763016 920.188049,118.329147 
	C917.537170,124.363510 913.640747,129.428177 909.459839,134.584976 
	C903.131104,142.391052 898.607605,151.634216 892.916199,159.993820 
	C889.620667,164.834320 886.100586,169.806549 881.678711,173.527771 
	C875.320618,178.878342 869.292725,184.243256 865.604553,191.835663 
	C865.047424,192.982605 864.300415,194.084869 863.446716,195.032608 
	C857.280518,201.878479 851.089355,208.702301 844.856995,215.488007 
	C837.864197,223.101700 829.258179,229.189575 823.851440,238.336517 
	C822.269348,241.013031 819.551941,243.058502 817.210876,245.238480 
	C811.186890,250.847763 804.872314,256.160675 799.060486,261.978302 
	C790.918274,270.128601 783.121338,278.624054 775.186279,286.980988 
	C769.166748,293.320526 761.860535,298.261627 757.177856,306.092560 
	C749.674927,318.639923 738.476196,328.586853 731.985901,342.070801 
	C729.667175,346.888031 729.152954,349.983002 732.155701,353.624969 
	C734.031494,352.768341 735.668640,351.813141 737.431030,351.250092 
	C747.705261,347.967926 757.522888,344.336761 765.979858,336.880554 
	C775.069336,328.866669 785.565002,322.463898 795.288208,315.147003 
	C802.054077,310.055481 808.640503,304.713257 815.124451,299.265625 
	C817.624146,297.165405 819.164978,293.461578 821.923340,292.213257 
	C832.685303,287.342865 837.781189,277.180481 843.495422,268.318390 
	C849.942078,258.320465 856.028564,248.304489 864.530884,239.873932 
	C867.660583,236.770737 870.160889,233.037857 872.999939,229.635315 
	C876.897034,224.964676 880.806763,220.303497 884.786011,215.703094 
	C886.413452,213.821533 888.302002,212.167572 889.958191,210.308899 
	C894.234192,205.509766 898.240417,200.451324 902.737366,195.872604 
	C908.359009,190.148926 914.281433,184.710953 920.225281,179.316360 
	C926.327209,173.778336 932.672668,168.509125 938.789124,162.986664 
	C941.670288,160.385239 944.455322,157.625916 946.944336,154.653778 
	C950.574646,150.318680 953.545288,145.383789 957.463257,141.351791 
	C960.699158,138.021683 965.065918,135.823334 968.633972,132.775146 
	C973.438049,128.671005 977.770630,124.002258 982.679016,120.038399 
	C984.982849,118.177879 987.544495,115.801407 991.394836,117.735428 
	C995.072510,119.582718 995.766968,122.396538 996.091980,126.068214 
	C996.583313,131.617050 993.242004,135.480194 990.723145,139.631180 
	C988.545959,143.219223 985.282410,146.147705 983.102295,149.734436 
	C979.477783,155.697662 976.695190,162.188828 972.887451,168.019836 
	C969.318909,173.484726 965.046265,178.523438 960.789185,183.497757 
	C953.179138,192.389786 945.524902,201.258835 937.513855,209.784836 
	C934.669983,212.811432 930.605652,214.654022 927.324829,217.316071 
	C922.492920,221.236740 917.704773,225.239212 913.185913,229.511368 
	C906.687622,235.654785 900.481079,242.105713 894.068176,248.341248 
	C892.904968,249.472351 891.208252,250.044632 890.000916,251.142319 
	C886.346008,254.465378 882.902771,258.024780 879.192383,261.281647 
	C877.141907,263.081421 874.381348,264.137939 872.533752,266.090515 
	C867.546082,271.361633 862.847717,276.908691 858.087524,282.392273 
	C852.344177,289.008636 845.411804,294.328552 840.003235,301.551422 
	C836.268250,306.539398 836.293701,311.087250 835.704346,315.931183 
	C835.160889,320.397583 843.265503,324.038635 847.443115,322.166504 
	C852.810974,319.761017 858.494568,318.066528 864.011780,315.985291 
	C867.133789,314.807556 870.524597,313.952484 873.223633,312.114227 
	C882.279602,305.946289 891.114136,299.449707 899.964539,292.984680 
	C906.088867,288.511017 912.210999,284.020660 918.122559,279.274323 
	C922.157837,276.034454 925.661560,272.127991 929.728699,268.934418 
	C931.911682,267.220215 935.136414,266.809998 937.262878,265.051636 
	C940.762634,262.157684 944.226562,258.986481 946.851624,255.320618 
	C951.394775,248.976227 957.662109,244.716034 963.550171,239.953979 
	C966.836670,237.295990 970.424927,234.950180 973.406494,231.989639 
	C978.533569,226.898804 985.192566,223.631866 989.765747,217.887695 
	C990.565918,216.882690 992.329407,216.687180 993.564331,215.973129 
	C994.664734,215.336884 995.849487,214.670227 996.651917,213.724213 
	C1001.409424,208.115570 1005.851624,202.220795 1010.866699,196.858856 
	C1012.781677,194.811432 1015.988831,194.081543 1014.127441,190.188416 
	C1013.789001,189.480576 1014.926819,187.875076 1015.653564,186.881882 
	C1019.402100,181.759445 1022.895813,176.382629 1027.193848,171.759811 
	C1029.244263,169.554535 1032.812744,167.979126 1035.825439,167.732864 
	C1037.737427,167.576569 1041.462769,170.211243 1041.657227,171.906067 
	C1042.373901,178.152863 1042.757935,184.663391 1037.692261,189.858215 
	C1033.025513,194.644104 1028.259155,199.381332 1024.070679,204.571014 
	C1020.259949,209.292679 1017.035339,214.511185 1013.804199,219.668472 
	C1011.621704,223.151932 1010.169678,227.107651 1007.873840,230.502411 
	C1003.076538,237.596024 997.084045,244.023972 993.242615,251.570389 
	C990.744446,256.478088 989.612366,262.835999 992.570862,269.418152 
	C997.260132,266.293884 1001.885498,263.657715 1006.001160,260.381348 
	C1015.894653,252.505234 1025.026489,243.562485 1035.431519,236.466278 
	C1048.663086,227.442245 1060.198486,216.554749 1072.266968,206.227982 
	C1079.512451,200.028183 1086.732666,193.798935 1093.944702,187.560333 
	C1098.636108,183.502197 1103.369507,179.487625 1107.940674,175.297104 
	C1111.788452,171.769653 1115.254761,167.815323 1119.193604,164.400192 
	C1131.712280,153.545807 1144.747192,143.256195 1156.848633,131.961823 
	C1165.079834,124.279411 1172.073608,115.272346 1179.634521,106.870033 
	C1182.771973,103.383461 1186.172974,100.105240 1189.032593,96.406395 
	C1191.455811,93.272209 1192.769287,89.174141 1195.492798,86.406975 
	C1198.426636,83.426025 1196.819580,82.192650 1194.295776,82.137436 
	C1189.101196,82.023804 1183.862793,82.516975 1178.689209,83.145767 
	C1169.346069,84.281342 1160.043335,85.743950 1150.711426,86.977417 
	C1147.147583,87.448471 1143.463623,88.327202 1139.984375,87.872314 
	C1129.985474,86.564964 1120.140503,85.882767 1110.517944,89.779228 
	C1109.935547,90.015030 1109.165161,90.135468 1108.581665,89.966484 
	C1100.796875,87.712029 1093.228638,90.308022 1085.611694,91.104553 
	C1082.742065,91.404640 1079.971680,92.907417 1077.220215,94.020683 
	C1072.995605,95.730026 1069.044189,94.611137 1065.173340,92.973312 
	C1062.152100,91.694984 1059.156494,90.313255 1056.291138,88.722267 
	C1053.778442,87.327110 1051.368286,85.699944 1049.090088,83.944984 
	C1047.268188,82.541519 1044.101807,80.413239 1044.369629,79.273705 
	C1044.953735,76.789307 1047.043091,73.170959 1049.054688,72.779930 
	C1055.982300,71.433212 1062.981689,71.003899 1069.078735,66.674835 
	C1070.558350,65.624283 1073.399170,66.725166 1075.359619,66.072319 
	C1080.786377,64.265144 1086.101196,62.109665 1091.413452,59.975559 
	C1093.474121,59.147728 1095.308716,57.567345 1097.418945,57.084625 
	C1107.630127,54.748882 1118.240479,55.752174 1128.486694,52.280476 
	C1136.798950,49.464020 1145.931641,48.992561 1154.735229,47.722393 
	C1164.339478,46.336731 1173.981323,45.210835 1183.611084,44.004917 
	C1193.880615,42.718880 1204.150635,41.435215 1214.428589,40.220520 
	C1221.231201,39.416565 1228.039795,38.637711 1234.864014,38.064724 
	C1236.716309,37.909203 1239.591187,39.452812 1240.353882,38.652020 
	C1243.338013,35.518284 1246.745972,37.341679 1249.926880,37.012100 
	C1256.731689,36.307045 1263.532593,35.516365 1270.354614,35.040836 
	C1279.530273,34.401249 1288.751709,34.320801 1297.903809,33.467190 
	C1311.189819,32.228031 1324.400391,30.086866 1337.700684,29.123707 
	C1350.243408,28.215406 1362.864258,28.006409 1375.443359,28.145704 
	C1381.244751,28.209946 1386.976929,29.602352 1392.613770,27.025595 
	C1398.790405,24.202007 1405.087036,27.867960 1411.748047,26.387897 
	C1423.819092,23.705711 1436.389526,22.806606 1448.878906,24.929754 
	C1450.035400,25.126366 1451.338867,24.285963 1452.599121,24.080849 
	C1455.149658,23.665718 1457.714233,23.082466 1460.278809,23.051439 
	C1470.277832,22.930481 1480.279175,22.999285 1490.279663,22.995363 
	C1494.104370,22.993864 1497.937500,23.148327 1501.752319,22.951387 
	C1512.884155,22.376719 1524.000977,21.380255 1535.138184,21.075563 
	C1547.291748,20.743061 1559.463501,21.129402 1571.623901,20.961519 
	C1582.532227,20.810925 1593.436035,20.333336 1605.264038,19.999996 
M1358.521240,96.000031 
	C1366.148682,92.034813 1373.775879,88.068863 1381.403931,84.104668 
	C1386.209595,81.607231 1392.388550,80.227165 1395.522095,76.371475 
	C1401.110352,69.495140 1408.473267,66.569473 1415.984619,63.402935 
	C1414.340454,57.888092 1410.776855,55.496208 1405.162842,55.986061 
	C1395.129883,56.861485 1385.084106,57.591499 1375.053589,58.493084 
	C1362.707520,59.602810 1350.369873,60.809700 1338.033081,62.020081 
	C1336.452637,62.175133 1334.909546,62.761940 1333.330322,62.867176 
	C1331.086548,63.016708 1328.825317,62.905144 1327.594238,62.905144 
	C1324.268799,63.737644 1321.772583,64.502998 1319.222046,64.975945 
	C1309.892456,66.706032 1300.014771,65.540047 1291.254761,70.299622 
	C1290.707397,70.596970 1290.076904,70.857758 1289.467163,70.905380 
	C1284.261475,71.311920 1279.050293,71.645142 1273.843506,72.039772 
	C1267.856689,72.493553 1262.084229,76.785027 1255.852417,73.038033 
	C1255.605225,72.889359 1255.173584,72.926666 1254.867310,73.014542 
	C1248.111938,74.953125 1241.399536,77.057953 1234.592773,78.793167 
	C1231.871216,79.486977 1228.401978,80.464165 1226.231445,79.384842 
	C1222.547241,77.552818 1220.298340,78.648727 1218.373169,81.225266 
	C1214.357178,86.599655 1210.702026,92.241997 1206.768188,97.679871 
	C1204.664062,100.588486 1205.038574,102.812836 1208.096680,104.575722 
	C1210.739014,106.098885 1213.469849,107.470268 1216.092041,109.026047 
	C1219.867554,111.266136 1222.317627,114.034882 1222.114136,119.046120 
	C1221.772461,127.468361 1220.326416,135.372406 1215.070312,141.703644 
	C1217.096313,144.527252 1218.892822,147.031158 1220.746460,149.614639 
	C1224.659058,146.066177 1228.819946,142.269150 1233.008301,138.502777 
	C1235.564575,136.204056 1238.231934,134.024811 1240.725220,131.661087 
	C1243.802002,128.744385 1246.604492,125.522209 1249.813965,122.768448 
	C1251.456055,121.359581 1254.044922,121.042618 1255.657837,119.613556 
	C1261.572510,114.373055 1267.274658,108.891342 1273.019775,103.461174 
	C1275.105591,101.489731 1277.200562,99.507782 1279.092407,97.355797 
	C1282.674072,93.281708 1285.799072,88.741875 1289.756470,85.092583 
	C1291.447144,83.533562 1295.002441,82.805084 1297.236084,83.420525 
	C1298.887939,83.875648 1301.101196,87.395126 1300.750122,89.061882 
	C1299.692505,94.082375 1297.699951,98.948357 1295.670532,103.703308 
	C1294.695068,105.989555 1293.059204,108.128654 1291.298462,109.917297 
	C1287.577271,113.697533 1283.483765,117.112785 1279.792358,120.919487 
	C1279.236816,121.492355 1279.728394,124.318245 1280.242676,124.478981 
	C1282.616577,125.220879 1285.771606,126.517296 1287.554810,125.566780 
	C1295.260864,121.459267 1303.934204,121.476700 1311.964355,118.967117 
	C1316.780518,117.461990 1322.975098,116.968544 1325.933594,113.672089 
	C1331.048462,107.973160 1338.509644,108.030540 1343.994629,103.728836 
	C1348.073853,100.529625 1353.113037,98.554314 1358.521240,96.000031 
M18.000137,619.457275 
	C16.747665,613.967957 15.495192,608.478638 14.242718,602.989319 
	C13.965909,603.028015 13.689101,603.066772 13.412292,603.105530 
	C13.412292,623.028320 13.412292,642.951172 13.412292,662.999634 
	C26.658236,662.999634 39.647507,663.001099 52.636776,662.995056 
	C53.265667,662.994812 53.894527,662.928406 54.523403,662.892761 
	C49.318527,660.553955 44.020359,658.502686 38.560928,657.062744 
	C30.916220,655.046326 23.178236,646.727844 21.958775,639.007812 
	C20.965462,632.719482 17.591526,626.919617 18.000137,619.457275 
M1758.686279,19.960798 
	C1764.722534,20.311804 1770.809814,20.301203 1776.776245,21.145981 
	C1780.507324,21.674271 1783.991821,23.014017 1787.669678,20.922266 
	C1788.509644,20.444502 1789.903687,20.915781 1791.040161,20.988171 
	C1795.757812,21.288658 1800.474121,21.608551 1805.191650,21.910837 
	C1806.976562,22.025204 1808.910889,21.708345 1810.517456,22.296726 
	C1813.565796,23.413071 1816.427002,25.040636 1819.668823,26.601761 
	C1819.668823,22.908047 1819.668823,20.023590 1819.668823,17.307583 
	C1793.104980,17.307583 1766.873291,17.307583 1740.641479,17.307583 
	C1740.635010,17.476837 1740.628418,17.646091 1740.621826,17.815348 
	C1746.409180,18.368597 1752.196533,18.921848 1758.686279,19.960798 
z"/>





</svg>